<svg width="32" height="32" viewBox="0 0 32 32" fill="none" xmlns="http://www.w3.org/2000/svg">
<path d="M29.5781 15.7814L16.7062 2.91892C16.6135 2.82606 16.5035 2.75238 16.3823 2.70212C16.2611 2.65185 16.1312 2.62598 16 2.62598C15.8688 2.62598 15.7389 2.65185 15.6177 2.70212C15.4965 2.75238 15.3864 2.82606 15.2937 2.91892L2.42185 15.7814C2.04685 16.1564 1.83435 16.6658 1.83435 17.197C1.83435 18.3002 2.73123 19.197 3.83435 19.197H5.1906V28.3752C5.1906 28.9283 5.63748 29.3752 6.1906 29.3752H14V22.3752H17.5V29.3752H25.8094C26.3625 29.3752 26.8094 28.9283 26.8094 28.3752V19.197H28.1656C28.6969 19.197 29.2062 18.9877 29.5812 18.6095C30.3594 17.8283 30.3594 16.5627 29.5781 15.7814Z" fill="white"/>
</svg>
