<svg width="50" height="50" viewBox="0 0 50 50" fill="none" xmlns="http://www.w3.org/2000/svg">
<path d="M25 4.1665C13.7062 4.1665 4.16663 13.7061 4.16663 24.9998C4.16663 36.2936 13.7062 45.8332 25 45.8332C36.2937 45.8332 45.8333 36.2936 45.8333 24.9998C45.8333 13.7061 36.2937 4.1665 25 4.1665ZM25 14.5832C28.5979 14.5832 31.25 17.2332 31.25 20.8332C31.25 24.4332 28.5979 27.0832 25 27.0832C21.4041 27.0832 18.75 24.4332 18.75 20.8332C18.75 17.2332 21.4041 14.5832 25 14.5832ZM14.3625 34.9415C16.2312 32.1915 19.3479 30.3582 22.9166 30.3582H27.0833C30.6541 30.3582 33.7687 32.1915 35.6375 34.9415C32.975 37.7915 29.1979 39.5832 25 39.5832C20.802 39.5832 17.025 37.7915 14.3625 34.9415Z" fill="white"/>
</svg>
