<svg width="160" height="160" viewBox="0 0 160 160" fill="none" xmlns="http://www.w3.org/2000/svg">
<path d="M55 120H105V130H55V120Z" fill="currentColor"/>
<path d="M65 140H95V150H65V140Z" fill="currentColor"/>
<path d="M54.0747 90.7C49.392 87.1285 45.6591 82.4605 43.2047 77.1071C40.7504 71.7536 39.6497 65.8789 39.9997 60C40.013 49.3954 44.2315 39.2289 51.7301 31.7303C59.2286 24.2318 69.3951 20.0132 79.9997 20V10C66.7433 10.0146 54.0341 15.2871 44.6605 24.6607C35.2868 34.0344 30.0143 46.7436 29.9997 60C29.6607 67.2639 31.0525 74.5044 34.0603 81.125C37.068 87.7456 41.6058 93.5569 47.2997 98.08C52.3597 102.755 54.9997 105.405 54.9997 110H64.9997C64.9997 100.8 59.4497 95.67 54.0747 90.7Z" fill="currentColor"/>
<path d="M105.89 90.715C100.535 95.675 95 100.8 95 110H105C105 105.4 107.63 102.75 112.675 98.07C118.368 93.547 122.907 87.7378 125.919 81.1198C128.93 74.5018 130.329 67.2637 130 60H120C120.341 65.8834 119.232 71.7604 116.772 77.1156C114.312 82.4708 110.575 87.1405 105.89 90.715Z" fill="currentColor"/>
<path d="M92.5 45C96.6421 45 100 41.6421 100 37.5C100 33.3579 96.6421 30 92.5 30C88.3579 30 85 33.3579 85 37.5C85 41.6421 88.3579 45 92.5 45Z" fill="currentColor"/>
<path d="M142.5 45C146.642 45 150 41.6421 150 37.5C150 33.3579 146.642 30 142.5 30C138.358 30 135 33.3579 135 37.5C135 41.6421 138.358 45 142.5 45Z" fill="currentColor"/>
<path d="M117.5 45C121.642 45 125 41.6421 125 37.5C125 33.3579 121.642 30 117.5 30C113.358 30 110 33.3579 110 37.5C110 41.6421 113.358 45 117.5 45Z" fill="currentColor"/>
</svg>
