<svg width="48" height="36" viewBox="0 0 48 36" fill="none" xmlns="http://www.w3.org/2000/svg">
<path d="M34.602 15.0001H46.398C46.5405 15.0001 46.6801 15.0408 46.8003 15.1173C46.9206 15.1938 47.0165 15.3029 47.0769 15.432C47.1374 15.5611 47.1598 15.7047 47.1416 15.846C47.1233 15.9873 47.0652 16.1206 46.974 16.2301L41.076 23.3101C41.0056 23.3945 40.9175 23.4624 40.818 23.509C40.7185 23.5556 40.6099 23.5797 40.5 23.5797C40.3901 23.5797 40.2815 23.5556 40.182 23.509C40.0825 23.4624 39.9944 23.3945 39.924 23.3101L34.026 16.2301C33.9348 16.1206 33.8767 15.9873 33.8585 15.846C33.8402 15.7047 33.8626 15.5611 33.9231 15.432C33.9835 15.3029 34.0795 15.1938 34.1997 15.1173C34.32 15.0408 34.4595 15.0001 34.602 15.0001ZM1.60201 21.0001H13.398C13.5405 21 13.6801 20.9594 13.8003 20.8829C13.9206 20.8064 14.0165 20.6972 14.0769 20.5681C14.1374 20.4391 14.1598 20.2955 14.1416 20.1541C14.1233 20.0128 14.0652 19.8796 13.974 19.7701L8.07601 12.6901C8.00563 12.6057 7.91755 12.5378 7.81801 12.4912C7.71848 12.4446 7.60992 12.4204 7.50001 12.4204C7.39011 12.4204 7.28155 12.4446 7.18201 12.4912C7.08248 12.5378 6.9944 12.6057 6.92401 12.6901L1.02601 19.7701C0.934807 19.8796 0.876686 20.0128 0.858457 20.1541C0.840227 20.2955 0.862644 20.4391 0.923082 20.5681C0.98352 20.6972 1.07948 20.8064 1.19972 20.8829C1.31996 20.9594 1.4595 21 1.60201 21.0001Z" fill="white"/>
<path fill-rule="evenodd" clip-rule="evenodd" d="M24 3.00021C19.344 3.00021 15.18 5.12121 12.429 8.45421C12.3062 8.61343 12.1526 8.74632 11.9773 8.84499C11.8021 8.94365 11.6088 9.00608 11.409 9.02854C11.2092 9.05101 11.0068 9.03307 10.8141 8.97578C10.6213 8.91849 10.442 8.82302 10.2869 8.69505C10.1318 8.56708 10.004 8.40923 9.91105 8.23088C9.81815 8.05252 9.76206 7.8573 9.74612 7.65684C9.73018 7.45637 9.75471 7.25475 9.81826 7.06395C9.88181 6.87316 9.98307 6.69709 10.116 6.54621C12.3126 3.88679 15.2268 1.91424 18.512 0.863177C21.7972 -0.187889 25.3152 -0.27324 28.6476 0.617277C31.9799 1.50779 34.9863 3.3367 37.3093 5.88647C39.6322 8.43624 41.1739 11.5996 41.751 15.0002H38.7C38.0074 11.6126 36.1661 8.56819 33.4876 6.38164C30.8091 4.1951 27.4577 3.00063 24 3.00021ZM9.30002 21.0002C9.86795 23.7741 11.2091 26.3307 13.1685 28.3746C15.1278 30.4186 17.6255 31.8665 20.3729 32.5511C23.1203 33.2356 26.0054 33.129 28.6947 32.2433C31.384 31.3577 33.768 29.7293 35.571 27.5462C35.6939 27.387 35.8475 27.2541 36.0227 27.1554C36.1979 27.0568 36.3912 26.9943 36.5911 26.9719C36.7909 26.9494 36.9932 26.9674 37.186 27.0246C37.3787 27.0819 37.558 27.1774 37.7132 27.3054C37.8683 27.4333 37.9961 27.5912 38.089 27.7695C38.1819 27.9479 38.238 28.1431 38.2539 28.3436C38.2699 28.544 38.2453 28.7457 38.1818 28.9365C38.1182 29.1273 38.017 29.3033 37.884 29.4542C35.6875 32.1136 32.7733 34.0862 29.488 35.1372C26.2028 36.1883 22.6848 36.2737 19.3525 35.3831C16.0202 34.4926 13.0137 32.6637 10.6908 30.1139C8.36784 27.5642 6.82613 24.4009 6.24902 21.0002H9.30002Z" fill="white"/>
</svg>
