<svg width="32" height="32" viewBox="0 0 32 32" fill="none" xmlns="http://www.w3.org/2000/svg">
<path d="M13.04 12.7111C15.9855 12.7111 18.3733 10.3233 18.3733 7.37777C18.3733 4.43225 15.9855 2.04443 13.04 2.04443C10.0945 2.04443 7.70667 4.43225 7.70667 7.37777C7.70667 10.3233 10.0945 12.7111 13.04 12.7111Z" fill="white"/>
<path d="M14.6134 28.2843C14.3196 27.9938 14.128 27.6159 14.0671 27.2073C14.0062 26.7986 14.0793 26.3812 14.2756 26.0177L14.7467 25.1288L13.7778 24.8355C13.3827 24.7118 13.0388 24.4626 12.7981 24.1257C12.5575 23.7888 12.4333 23.3826 12.4445 22.9688V21.1466C12.4438 20.7345 12.5756 20.3332 12.8205 20.0019C13.0654 19.6705 13.4104 19.4267 13.8045 19.3066L14.7734 19.0132L14.3112 18.1243C14.1206 17.7657 14.0481 17.3562 14.104 16.954C14.1599 16.5518 14.3412 16.1774 14.6223 15.8843C13.9384 15.7947 13.2497 15.7472 12.5601 15.7421C10.523 15.6942 8.50047 16.0963 6.63671 16.9199C4.77295 17.7434 3.11388 18.9681 1.77783 20.5066V27.3955C1.77783 27.6312 1.87148 27.8573 2.03818 28.024C2.20488 28.1907 2.43097 28.2843 2.66672 28.2843H14.6134Z" fill="white"/>
<path d="M29.9556 20.8531L28.1778 20.3198C28.0546 19.8808 27.8816 19.4573 27.6622 19.0576L28.5511 17.4043C28.5855 17.3429 28.598 17.2717 28.5867 17.2023C28.5754 17.1329 28.5409 17.0693 28.4889 17.022L27.2 15.7243C27.1504 15.6759 27.0871 15.6441 27.0187 15.6329C26.9503 15.6218 26.8802 15.632 26.8178 15.662L25.1733 16.5509C24.7686 16.331 24.3427 16.1524 23.9022 16.0176L23.36 14.2398C23.3361 14.1743 23.2926 14.1177 23.2353 14.0779C23.178 14.0381 23.1098 14.0171 23.04 14.0176H21.1911C21.1218 14.0195 21.0548 14.0427 20.9991 14.0841C20.9435 14.1254 20.9019 14.1829 20.88 14.2487L20.3467 16.0265C19.8976 16.1571 19.4652 16.3391 19.0578 16.5687L17.4489 15.6798C17.3863 15.6466 17.3149 15.6338 17.2447 15.6434C17.1745 15.653 17.1091 15.6844 17.0578 15.7331L15.7511 17.0131C15.6997 17.0627 15.6658 17.1277 15.6545 17.1983C15.6433 17.2689 15.6554 17.3412 15.6889 17.4043L16.5778 19.022C16.3397 19.4235 16.1459 19.8497 16 20.2931L14.2222 20.8354C14.155 20.8548 14.096 20.8958 14.0542 20.952C14.0125 21.0081 13.9903 21.0765 13.9911 21.1465V22.9687C13.9903 23.0387 14.0125 23.107 14.0542 23.1632C14.096 23.2194 14.155 23.2604 14.2222 23.2798L16 23.822C16.1333 24.2574 16.312 24.6775 16.5333 25.0754L15.6444 26.7643C15.6109 26.8274 15.5989 26.8997 15.6101 26.9702C15.6213 27.0408 15.6552 27.1058 15.7067 27.1554L17.0311 28.4443C17.0825 28.493 17.1479 28.5244 17.2181 28.534C17.2883 28.5436 17.3597 28.5308 17.4222 28.4976L19.0844 27.6087C19.48 27.8214 19.8972 27.9913 20.3289 28.1154L20.8622 29.9376C20.8846 30.0048 20.9275 30.0633 20.9849 30.1047C21.0424 30.1462 21.1114 30.1686 21.1822 30.1687H23.0044C23.0737 30.1668 23.1408 30.1435 23.1964 30.1022C23.2521 30.0609 23.2937 30.0034 23.3156 29.9376L23.8489 28.1154C24.2754 27.9928 24.6869 27.8229 25.0756 27.6087L26.7556 28.4976C26.8181 28.5308 26.8895 28.5436 26.9597 28.534C27.0299 28.5244 27.0953 28.493 27.1467 28.4443L28.4444 27.1554C28.4932 27.104 28.5246 27.0386 28.5342 26.9684C28.5438 26.8982 28.531 26.8268 28.4978 26.7643L27.6089 25.0931C27.8215 24.7037 27.9914 24.2924 28.1156 23.8665L29.8933 23.3243C29.9601 23.3028 30.0188 23.2615 30.0617 23.206C30.1045 23.1504 30.1295 23.0832 30.1333 23.0131V21.1731C30.1355 21.1087 30.1201 21.0449 30.0888 20.9885C30.0575 20.9321 30.0114 20.8853 29.9556 20.8531ZM22.1067 25.0487C21.5191 25.0505 20.9442 24.8778 20.4548 24.5527C19.9654 24.2275 19.5835 23.7645 19.3574 23.2221C19.1314 22.6798 19.0713 22.0826 19.1849 21.5061C19.2984 20.9296 19.5805 20.3997 19.9953 19.9837C20.4102 19.5676 20.9391 19.2839 21.5153 19.1686C22.0914 19.0534 22.6888 19.1116 23.2319 19.3361C23.7749 19.5605 24.2391 19.941 24.5657 20.4295C24.8923 20.9179 25.0667 21.4922 25.0667 22.0798C25.0667 22.8657 24.7551 23.6195 24.2002 24.176C23.6454 24.7325 22.8925 25.0463 22.1067 25.0487Z" fill="white"/>
</svg>
