<svg width="160" height="160" viewBox="0 0 160 160" fill="none" xmlns="http://www.w3.org/2000/svg">
<path d="M96.0004 128.889C96.0004 127.71 95.5321 126.58 94.6986 125.746C93.8651 124.913 92.7347 124.444 91.5559 124.444H64.8893C63.7105 124.444 62.5801 124.913 61.7466 125.746C60.9131 126.58 60.4448 127.71 60.4448 128.889C60.4448 130.068 60.9131 131.198 61.7466 132.031C62.5801 132.865 63.7105 133.333 64.8893 133.333H91.5559C92.7347 133.333 93.8651 132.865 94.6986 132.031C95.5321 131.198 96.0004 130.068 96.0004 128.889Z" fill="currentColor"/>
<path d="M100.178 106.667H73.5113C72.3326 106.667 71.2021 107.135 70.3686 107.968C69.5351 108.802 69.0669 109.932 69.0669 111.111C69.0669 112.29 69.5351 113.42 70.3686 114.254C71.2021 115.087 72.3326 115.555 73.5113 115.555H100.178C101.357 115.555 102.487 115.087 103.321 114.254C104.154 113.42 104.622 112.29 104.622 111.111C104.622 109.932 104.154 108.802 103.321 107.968C102.487 107.135 101.357 106.667 100.178 106.667Z" fill="currentColor"/>
<path d="M97.7779 142.222H71.1112C69.9325 142.222 68.802 142.69 67.9685 143.524C67.135 144.357 66.6667 145.488 66.6667 146.667C66.6667 147.845 67.135 148.976 67.9685 149.809C68.802 150.643 69.9325 151.111 71.1112 151.111H97.7779C98.9566 151.111 100.087 150.643 100.921 149.809C101.754 148.976 102.222 147.845 102.222 146.667C102.222 145.488 101.754 144.357 100.921 143.524C100.087 142.69 98.9566 142.222 97.7779 142.222Z" fill="currentColor"/>
<path d="M145.333 142.222H114.222C113.043 142.222 111.913 142.69 111.079 143.524C110.246 144.357 109.778 145.488 109.778 146.667C109.778 147.845 110.246 148.976 111.079 149.809C111.913 150.643 113.043 151.111 114.222 151.111H145.333C146.512 151.111 147.642 150.643 148.476 149.809C149.309 148.976 149.778 147.845 149.778 146.667C149.778 145.488 149.309 144.357 148.476 143.524C147.642 142.69 146.512 142.222 145.333 142.222Z" fill="currentColor"/>
<path d="M149.778 124.444H118.667C117.488 124.444 116.357 124.913 115.524 125.746C114.69 126.58 114.222 127.71 114.222 128.889C114.222 130.068 114.69 131.198 115.524 132.031C116.357 132.865 117.488 133.333 118.667 133.333H149.778C150.956 133.333 152.087 132.865 152.92 132.031C153.754 131.198 154.222 130.068 154.222 128.889C154.222 127.71 153.754 126.58 152.92 125.746C152.087 124.913 150.956 124.444 149.778 124.444Z" fill="currentColor"/>
<path d="M149.956 115.555C148.653 99.9063 144.401 84.6451 137.422 70.5776C130.738 57.8653 121.106 46.9384 109.333 38.7109L120 15.1998C120.344 14.4971 120.496 13.7162 120.442 12.9358C120.387 12.1554 120.127 11.4033 119.689 10.7554C119.284 10.187 118.752 9.72184 118.134 9.39755C117.516 9.07326 116.831 8.89894 116.133 8.88869H43.5557C42.8086 8.88683 42.073 9.07337 41.417 9.43105C40.7611 9.78873 40.2058 10.306 39.8027 10.9351C39.3996 11.5641 39.1615 12.2847 39.1106 13.0301C39.0597 13.7755 39.1975 14.5217 39.5113 15.1998L50.4002 38.7998C38.7134 47.035 29.1476 57.926 22.489 70.5776C12.9335 88.3554 9.95571 110.089 9.15571 125.155C9.02471 127.361 9.35199 129.57 10.1169 131.643C10.8818 133.716 12.0678 135.608 13.6002 137.2C15.2106 138.764 17.1176 139.991 19.2089 140.807C21.3002 141.624 23.5336 142.014 25.7779 141.955H53.3335V133.333H25.4224C24.4165 133.33 23.4217 133.124 22.4976 132.727C21.5735 132.329 20.7391 131.75 20.0446 131.022C19.3491 130.3 18.8119 129.441 18.4675 128.5C18.1231 127.558 17.9791 126.556 18.0446 125.555C18.6668 113.955 21.1113 91.8665 30.3113 74.6665C36.7967 62.3425 46.387 51.925 58.1335 44.4442H62.5779C59.5661 48.6107 56.7914 52.9435 54.2668 57.422C51.6956 62.1875 49.5108 67.1516 47.7335 72.2665L53.8224 76.3554C55.6213 71.0487 57.8355 65.892 60.4446 60.9331C63.6484 55.1672 67.2887 49.6548 71.3335 44.4442H75.7779C78.7594 51.5704 80.8637 59.0325 82.0446 66.6665C83.01 72.3336 83.4859 78.0733 83.4668 83.822L90.4891 78.8887C90.2933 74.4189 89.8183 69.9658 89.0668 65.5554C87.8743 58.3473 85.9687 51.2755 83.3779 44.4442H86.8446L90.8891 35.5554H58.7113L50.489 17.7776H109.2L98.089 42.0887C99.9937 43.1089 101.821 44.2675 103.556 45.5554C114.445 53.0682 123.376 63.0811 129.6 74.7554C135.834 87.5562 139.704 101.378 141.022 115.555H149.956Z" fill="currentColor"/>
</svg>
