<svg width="48" height="48" viewBox="0 0 48 48" fill="none" xmlns="http://www.w3.org/2000/svg">
<path d="M33.7275 1.5H14.2725C12.7613 1.5 11.25 2.952 11.2508 4.40325L11.25 43.5968C11.25 45.048 12.7613 46.5 14.2725 46.5H33.7275C35.2395 46.5 36.75 45.048 36.75 43.5968V4.40325C36.75 2.952 35.2388 1.5 33.7275 1.5ZM32.145 3.96075C32.5358 3.96075 32.8538 4.275 32.8538 4.66425C32.8538 5.052 32.5358 5.36775 32.145 5.36775C31.7542 5.36775 31.4377 5.052 31.4377 4.66425C31.4379 4.5716 31.4564 4.47991 31.4921 4.3944C31.5277 4.30889 31.5799 4.23125 31.6456 4.16591C31.7113 4.10058 31.7892 4.04883 31.8749 4.01362C31.9606 3.97842 32.0524 3.96045 32.145 3.96075ZM22.0868 4.33725H25.9132C26.031 4.33725 26.1248 4.49325 26.1248 4.6875C26.1248 4.8825 26.031 5.04075 25.9132 5.04075H22.0868C21.9705 5.04075 21.8752 4.8825 21.8752 4.6875C21.8752 4.494 21.9705 4.33725 22.0868 4.33725ZM26.6565 43.863C26.6563 43.9326 26.6424 44.0014 26.6155 44.0656C26.5887 44.1298 26.5494 44.188 26.5 44.237C26.4506 44.286 26.3921 44.3247 26.3277 44.351C26.2633 44.3773 26.1943 44.3906 26.1248 44.3903H21.8752C21.8057 44.3906 21.7367 44.3773 21.6723 44.351C21.6079 44.3247 21.5494 44.286 21.5 44.237C21.4506 44.188 21.4113 44.1298 21.3845 44.0656C21.3576 44.0014 21.3437 43.9326 21.3435 43.863V42.8085C21.3435 42.5168 21.5813 42.2812 21.8752 42.2812H26.1248C26.4187 42.2812 26.6565 42.5168 26.6565 42.8085V43.863ZM34.6252 40.875H13.3748V7.125H34.6245V40.875H34.6252Z" fill="white"/>
<path d="M15.4447 12.3983H17.7885C17.8654 12.3985 17.9417 12.3835 18.0128 12.3542C18.084 12.3249 18.1486 12.2818 18.2031 12.2275C18.2576 12.1732 18.3008 12.1086 18.3303 12.0375C18.3598 11.9664 18.375 11.8903 18.375 11.8133V9.46956C18.375 9.31401 18.3132 9.16483 18.2032 9.05484C18.0932 8.94485 17.944 8.88306 17.7885 8.88306H15.4447C15.3678 8.88306 15.2916 8.89824 15.2205 8.92773C15.1495 8.95722 15.0849 9.00045 15.0306 9.05493C14.9762 9.10941 14.9332 9.17408 14.9038 9.24523C14.8745 9.31637 14.8595 9.39261 14.8597 9.46956V11.8133C14.8597 12.1366 15.1215 12.3983 15.4447 12.3983Z" fill="white"/>
<path d="M20.3663 12.3983H22.71C22.787 12.3985 22.8632 12.3835 22.9343 12.3542C23.0055 12.3249 23.0701 12.2818 23.1246 12.2275C23.1791 12.1732 23.2223 12.1086 23.2518 12.0375C23.2813 11.9664 23.2965 11.8903 23.2965 11.8133V9.46956C23.2965 9.31401 23.2347 9.16483 23.1247 9.05484C23.0147 8.94485 22.8656 8.88306 22.71 8.88306H20.3663C20.2893 8.88306 20.2131 8.89824 20.142 8.92773C20.071 8.95722 20.0064 9.00045 19.9521 9.05493C19.8977 9.10941 19.8547 9.17408 19.8254 9.24523C19.796 9.31637 19.7811 9.39261 19.7813 9.46956V11.8133C19.7813 12.1366 20.0438 12.3983 20.3663 12.3983Z" fill="white"/>
<path d="M25.2885 12.3983H27.6322C27.7092 12.3985 27.7854 12.3835 27.8566 12.3542C27.9277 12.3249 27.9924 12.2818 28.0469 12.2275C28.1014 12.1732 28.1446 12.1086 28.1741 12.0375C28.2036 11.9664 28.2187 11.8903 28.2187 11.8133V9.46956C28.2187 9.31401 28.157 9.16483 28.047 9.05484C27.937 8.94485 27.7878 8.88306 27.6322 8.88306H25.2885C25.2115 8.88306 25.1354 8.89824 25.0643 8.92773C24.9932 8.95722 24.9286 9.00045 24.8743 9.05493C24.82 9.10941 24.7769 9.17408 24.7476 9.24523C24.7183 9.31637 24.7033 9.39261 24.7035 9.46956V11.8133C24.7035 12.1366 24.9652 12.3983 25.2885 12.3983Z" fill="white"/>
<path d="M30.21 12.3983H32.5538C32.6307 12.3985 32.7069 12.3835 32.7781 12.3542C32.8492 12.3249 32.9139 12.2818 32.9684 12.2275C33.0229 12.1732 33.0661 12.1086 33.0956 12.0375C33.1251 11.9664 33.1403 11.8903 33.1403 11.8133V9.46956C33.1403 9.31401 33.0785 9.16483 32.9685 9.05484C32.8585 8.94485 32.7093 8.88306 32.5538 8.88306H30.21C30.1331 8.88306 30.0569 8.89824 29.9858 8.92773C29.9147 8.95722 29.8502 9.00045 29.7958 9.05493C29.7415 9.10941 29.6984 9.17408 29.6691 9.24523C29.6398 9.31637 29.6248 9.39261 29.625 9.46956V11.8133C29.625 12.1366 29.8875 12.3983 30.21 12.3983Z" fill="white"/>
<path d="M15.4447 39.4687H17.7885C17.8654 39.4689 17.9417 39.454 18.0128 39.4246C18.084 39.3953 18.1486 39.3523 18.2031 39.2979C18.2576 39.2436 18.3008 39.179 18.3303 39.108C18.3598 39.0369 18.375 38.9607 18.375 38.8837V36.5392C18.375 36.4623 18.3598 36.386 18.3303 36.3149C18.3008 36.2438 18.2576 36.1792 18.2032 36.1248C18.1487 36.0704 18.084 36.0273 18.0129 35.9979C17.9417 35.9685 17.8655 35.9534 17.7885 35.9535H15.4447C15.3679 35.9535 15.2917 35.9686 15.2207 35.9981C15.1497 36.0275 15.0852 36.0707 15.0308 36.1251C14.9765 36.1795 14.9334 36.2441 14.9041 36.3151C14.8747 36.3862 14.8596 36.4624 14.8597 36.5392V38.8837C14.8597 39.2062 15.1215 39.4687 15.4447 39.4687Z" fill="white"/>
<path d="M20.3663 39.4687H22.71C22.787 39.4689 22.8632 39.454 22.9343 39.4246C23.0055 39.3953 23.0701 39.3523 23.1246 39.2979C23.1791 39.2436 23.2223 39.179 23.2518 39.108C23.2813 39.0369 23.2965 38.9607 23.2965 38.8837V36.5392C23.2965 36.4623 23.2813 36.386 23.2518 36.3149C23.2224 36.2438 23.1791 36.1792 23.1247 36.1248C23.0702 36.0704 23.0055 36.0273 22.9344 35.9979C22.8632 35.9685 22.787 35.9534 22.71 35.9535H20.3663C20.2894 35.9535 20.2132 35.9686 20.1422 35.9981C20.0712 36.0275 20.0067 36.0707 19.9523 36.1251C19.898 36.1795 19.8549 36.2441 19.8256 36.3151C19.7962 36.3862 19.7812 36.4624 19.7813 36.5392V38.8837C19.7813 39.2062 20.0438 39.4687 20.3663 39.4687Z" fill="white"/>
<path d="M25.2885 39.4687H27.6322C27.7092 39.4689 27.7854 39.454 27.8566 39.4246C27.9277 39.3953 27.9924 39.3523 28.0469 39.2979C28.1014 39.2436 28.1446 39.179 28.1741 39.108C28.2036 39.0369 28.2187 38.9607 28.2187 38.8837V36.5392C28.2187 36.4623 28.2036 36.386 28.1741 36.3149C28.1446 36.2438 28.1014 36.1792 28.0469 36.1248C27.9924 36.0704 27.9278 36.0273 27.8566 35.9979C27.7855 35.9685 27.7092 35.9534 27.6322 35.9535H25.2885C25.2116 35.9535 25.1355 35.9686 25.0644 35.9981C24.9934 36.0275 24.9289 36.0707 24.8746 36.1251C24.8202 36.1795 24.7772 36.2441 24.7478 36.3151C24.7185 36.3862 24.7034 36.4624 24.7035 36.5392V38.8837C24.7035 39.2062 24.9652 39.4687 25.2885 39.4687Z" fill="white"/>
<path d="M30.21 39.4687H32.5538C32.6307 39.4689 32.7069 39.454 32.7781 39.4246C32.8492 39.3953 32.9139 39.3523 32.9684 39.2979C33.0229 39.2436 33.0661 39.179 33.0956 39.108C33.1251 39.0369 33.1403 38.9607 33.1403 38.8837V36.5392C33.1403 36.4623 33.1251 36.386 33.0956 36.3149C33.0661 36.2438 33.0229 36.1792 32.9684 36.1248C32.914 36.0704 32.8493 36.0273 32.7781 35.9979C32.707 35.9685 32.6307 35.9534 32.5538 35.9535H30.21C30.1331 35.9535 30.057 35.9686 29.986 35.9981C29.9149 36.0275 29.8504 36.0707 29.7961 36.1251C29.7417 36.1795 29.6987 36.2441 29.6693 36.3151C29.64 36.3862 29.6249 36.4624 29.625 36.5392V38.8837C29.625 39.2062 29.8875 39.4687 30.21 39.4687Z" fill="white"/>
<path d="M15.4447 25.9335H17.7885C17.8654 25.9337 17.9417 25.9187 18.0128 25.8894C18.084 25.8601 18.1486 25.817 18.2031 25.7627C18.2576 25.7083 18.3008 25.6438 18.3303 25.5727C18.3598 25.5016 18.375 25.4254 18.375 25.3485V23.004C18.375 22.927 18.3598 22.8507 18.3303 22.7796C18.3008 22.7085 18.2576 22.6439 18.2032 22.5895C18.1487 22.5351 18.084 22.492 18.0129 22.4626C17.9417 22.4332 17.8655 22.4181 17.7885 22.4182H15.4447C15.3679 22.4182 15.2917 22.4334 15.2207 22.4628C15.1497 22.4923 15.0852 22.5354 15.0308 22.5898C14.9765 22.6442 14.9334 22.7088 14.9041 22.7799C14.8747 22.8509 14.8596 22.9271 14.8597 23.004V25.3485C14.8597 25.6717 15.1215 25.9335 15.4447 25.9335Z" fill="white"/>
<path d="M20.3663 25.9335H22.71C22.787 25.9337 22.8632 25.9187 22.9343 25.8894C23.0055 25.8601 23.0701 25.817 23.1246 25.7627C23.1791 25.7083 23.2223 25.6438 23.2518 25.5727C23.2813 25.5016 23.2965 25.4254 23.2965 25.3485V23.004C23.2965 22.927 23.2813 22.8507 23.2518 22.7796C23.2224 22.7085 23.1791 22.6439 23.1247 22.5895C23.0702 22.5351 23.0055 22.492 22.9344 22.4626C22.8632 22.4332 22.787 22.4181 22.71 22.4182H20.3663C20.2894 22.4182 20.2132 22.4334 20.1422 22.4628C20.0712 22.4923 20.0067 22.5354 19.9523 22.5898C19.898 22.6442 19.8549 22.7088 19.8256 22.7799C19.7962 22.8509 19.7812 22.9271 19.7813 23.004V25.3485C19.7813 25.6717 20.0438 25.9335 20.3663 25.9335Z" fill="white"/>
<path d="M25.2885 25.9335H27.6322C27.7092 25.9337 27.7854 25.9187 27.8566 25.8894C27.9277 25.8601 27.9924 25.817 28.0469 25.7627C28.1014 25.7083 28.1446 25.6438 28.1741 25.5727C28.2036 25.5016 28.2187 25.4254 28.2187 25.3485V23.004C28.2187 22.927 28.2036 22.8507 28.1741 22.7796C28.1446 22.7085 28.1014 22.6439 28.0469 22.5895C27.9924 22.5351 27.9278 22.492 27.8566 22.4626C27.7855 22.4332 27.7092 22.4181 27.6322 22.4182H25.2885C25.2116 22.4182 25.1355 22.4334 25.0644 22.4628C24.9934 22.4923 24.9289 22.5354 24.8746 22.5898C24.8202 22.6442 24.7772 22.7088 24.7478 22.7799C24.7185 22.8509 24.7034 22.9271 24.7035 23.004V25.3485C24.7035 25.6717 24.9652 25.9335 25.2885 25.9335Z" fill="white"/>
<path d="M15.4447 21.4222H17.7885C18.1132 21.4222 18.375 21.1597 18.375 20.8365V18.4935C18.375 18.3379 18.3132 18.1888 18.2032 18.0788C18.0932 17.9688 17.944 17.907 17.7885 17.907H15.4447C15.3678 17.907 15.2916 17.9222 15.2205 17.9517C15.1495 17.9811 15.0849 18.0244 15.0306 18.0789C14.9762 18.1333 14.9332 18.198 14.9038 18.2692C14.8745 18.3403 14.8595 18.4165 14.8597 18.4935V20.8365C14.8596 20.9134 14.8747 20.9895 14.9041 21.0606C14.9334 21.1316 14.9765 21.1962 15.0308 21.2506C15.0852 21.305 15.1497 21.3482 15.2207 21.3776C15.2917 21.4071 15.3679 21.4222 15.4447 21.4222Z" fill="white"/>
<path d="M20.3663 21.4222H22.71C23.0348 21.4222 23.2965 21.1597 23.2965 20.8365V18.4935C23.2965 18.3379 23.2347 18.1888 23.1247 18.0788C23.0147 17.9688 22.8656 17.907 22.71 17.907H20.3663C20.2893 17.907 20.2131 17.9222 20.142 17.9517C20.071 17.9811 20.0064 18.0244 19.9521 18.0789C19.8977 18.1333 19.8547 18.198 19.8254 18.2692C19.796 18.3403 19.7811 18.4165 19.7813 18.4935V20.8365C19.7813 21.1597 20.0438 21.4222 20.3663 21.4222Z" fill="white"/>
<path d="M25.2885 21.4222H27.6322C27.957 21.4222 28.2187 21.1597 28.2187 20.8365V18.4935C28.2187 18.3379 28.157 18.1888 28.047 18.0788C27.937 17.9688 27.7878 17.907 27.6322 17.907H25.2885C25.2115 17.907 25.1354 17.9222 25.0643 17.9517C24.9932 17.9811 24.9286 18.0244 24.8743 18.0789C24.82 18.1333 24.7769 18.198 24.7476 18.2692C24.7183 18.3403 24.7033 18.4165 24.7035 18.4935V20.8365C24.7034 20.9134 24.7185 20.9895 24.7478 21.0606C24.7772 21.1316 24.8202 21.1962 24.8746 21.2506C24.9289 21.305 24.9934 21.3482 25.0645 21.3776C25.1355 21.4071 25.2116 21.4222 25.2885 21.4222Z" fill="white"/>
<path d="M30.21 21.4222H32.5538C32.8785 21.4222 33.1403 21.1597 33.1403 20.8365V18.4935C33.1403 18.3379 33.0785 18.1888 32.9685 18.0788C32.8585 17.9688 32.7093 17.907 32.5538 17.907H30.21C30.1331 17.907 30.0569 17.9222 29.9858 17.9517C29.9147 17.9811 29.8502 18.0244 29.7958 18.0789C29.7415 18.1333 29.6984 18.198 29.6691 18.2692C29.6398 18.3403 29.6248 18.4165 29.625 18.4935V20.8365C29.625 21.1597 29.8875 21.4222 30.21 21.4222Z" fill="white"/>
<path d="M15.4447 16.911H17.7885C18.1132 16.911 18.375 16.6485 18.375 16.3245V13.9808C18.375 13.6583 18.1125 13.3958 17.7885 13.3958H15.4447C15.2896 13.3958 15.1408 13.4574 15.0311 13.5671C14.9214 13.6768 14.8597 13.8256 14.8597 13.9808V16.3245C14.8595 16.4015 14.8745 16.4777 14.9038 16.5488C14.9332 16.62 14.9762 16.6846 15.0306 16.7391C15.0849 16.7936 15.1495 16.8368 15.2205 16.8663C15.2916 16.8958 15.3678 16.911 15.4447 16.911Z" fill="white"/>
<path d="M20.3663 16.911H22.71C23.0348 16.911 23.2965 16.6485 23.2965 16.3245V13.9808C23.2965 13.6583 23.034 13.3958 22.71 13.3958H20.3663C20.2111 13.3958 20.0623 13.4574 19.9526 13.5671C19.8429 13.6768 19.7812 13.8256 19.7812 13.9808V16.3245C19.7812 16.6485 20.0438 16.911 20.3663 16.911Z" fill="white"/>
<path d="M25.2885 16.911H27.6322C27.957 16.911 28.2187 16.6485 28.2187 16.3245V13.9808C28.2187 13.6583 27.9562 13.3958 27.6322 13.3958H25.2885C25.1333 13.3958 24.9845 13.4574 24.8748 13.5671C24.7651 13.6768 24.7035 13.8256 24.7035 13.9808V16.3245C24.7033 16.4015 24.7183 16.4777 24.7476 16.5488C24.7769 16.62 24.82 16.6846 24.8743 16.7391C24.9286 16.7936 24.9932 16.8368 25.0643 16.8663C25.1354 16.8958 25.2115 16.911 25.2885 16.911Z" fill="white"/>
<path d="M30.21 16.911H32.5537C32.8785 16.911 33.1403 16.6485 33.1403 16.3245V13.9808C33.1403 13.6583 32.8777 13.3958 32.5537 13.3958H30.21C30.0548 13.3958 29.9061 13.4574 29.7963 13.5671C29.6866 13.6768 29.625 13.8256 29.625 13.9808V16.3245C29.625 16.6485 29.8875 16.911 30.21 16.911Z" fill="white"/>
</svg>
