<svg width="32" height="32" viewBox="0 0 32 32" fill="none" xmlns="http://www.w3.org/2000/svg">
<path d="M26.6666 10.6665H5.33329V7.99984H26.6666V10.6665ZM24 2.6665H7.99996V5.33317H24V2.6665ZM29.3333 15.9998V26.6665C29.3333 27.3737 29.0523 28.052 28.5522 28.5521C28.0521 29.0522 27.3739 29.3332 26.6666 29.3332H5.33329C4.6267 29.3311 3.94965 29.0494 3.45001 28.5498C2.95037 28.0502 2.66874 27.3731 2.66663 26.6665V15.9998C2.66874 15.2932 2.95037 14.6162 3.45001 14.1166C3.94965 13.6169 4.6267 13.3353 5.33329 13.3332H26.6666C27.3732 13.3353 28.0503 13.6169 28.5499 14.1166C29.0496 14.6162 29.3312 15.2932 29.3333 15.9998ZM18.5693 22.7225L21.6666 20.0745L17.588 19.7332L16 15.9998L14.412 19.7332L10.3333 20.0745L13.4306 22.7225L12.4973 26.6665L16 24.5705L19.5026 26.6665L18.5693 22.7225Z" fill="white"/>
</svg>
