<svg width="48" height="48" viewBox="0 0 48 48" fill="none" xmlns="http://www.w3.org/2000/svg">
<path d="M38 22.0001H14.28L21.54 13.2801C21.8795 12.8716 22.0428 12.3451 21.994 11.8162C21.9453 11.2874 21.6884 10.7995 21.28 10.4601C20.8716 10.1206 20.345 9.95726 19.8162 10.006C19.2873 10.0548 18.7995 10.3116 18.46 10.7201L8.46 22.7201C8.39272 22.8155 8.33256 22.9158 8.28 23.0201C8.28 23.1201 8.28 23.1801 8.14 23.2801C8.04935 23.5094 8.00188 23.7535 8 24.0001C8.00188 24.2466 8.04935 24.4907 8.14 24.7201C8.14 24.8201 8.14 24.8801 8.28 24.9801C8.33256 25.0843 8.39272 25.1846 8.46 25.2801L18.46 37.2801C18.648 37.5058 18.8835 37.6874 19.1497 37.8118C19.4159 37.9363 19.7062 38.0005 20 38.0001C20.4673 38.001 20.9202 37.8382 21.28 37.5401C21.4825 37.3722 21.6499 37.166 21.7726 36.9333C21.8953 36.7006 21.9709 36.446 21.9951 36.184C22.0192 35.9221 21.9915 35.6579 21.9134 35.4067C21.8353 35.1555 21.7084 34.9222 21.54 34.7201L14.28 26.0001H38C38.5304 26.0001 39.0391 25.7894 39.4142 25.4143C39.7893 25.0392 40 24.5305 40 24.0001C40 23.4696 39.7893 22.9609 39.4142 22.5859C39.0391 22.2108 38.5304 22.0001 38 22.0001Z" fill="white"/>
</svg>
