<svg width="24" height="24" viewBox="0 0 24 24" fill="none" xmlns="http://www.w3.org/2000/svg">
<path d="M12.0003 16.0003C11.7666 16.0007 11.5402 15.9194 11.3603 15.7703L5.36028 10.7703C5.15606 10.6005 5.02763 10.3566 5.00325 10.0922C4.97888 9.82777 5.06054 9.56449 5.23028 9.36028C5.40001 9.15606 5.64393 9.02763 5.90835 9.00325C6.17278 8.97888 6.43606 9.06054 6.64028 9.23028L12.0003 13.7103L17.3603 9.39028C17.4626 9.30721 17.5803 9.24518 17.7066 9.20775C17.8329 9.17031 17.9654 9.15822 18.0965 9.17216C18.2275 9.1861 18.3545 9.2258 18.4701 9.28897C18.5857 9.35214 18.6878 9.43755 18.7703 9.54028C18.8619 9.6431 18.9312 9.76372 18.974 9.8946C19.0168 10.0255 19.0321 10.1638 19.019 10.3008C19.0058 10.4379 18.9645 10.5708 18.8976 10.6911C18.8307 10.8115 18.7397 10.9167 18.6303 11.0003L12.6303 15.8303C12.4452 15.9558 12.2234 16.0156 12.0003 16.0003Z" fill="white"/>
</svg>
