<svg width="48" height="48" viewBox="0 0 48 48" fill="none" xmlns="http://www.w3.org/2000/svg">
<g opacity="0.5">
<path d="M35.9999 29.9993C35.5326 30.0003 35.0797 29.8375 34.7199 29.5394L23.9999 20.5793L13.2599 29.2193C13.0553 29.3855 12.8199 29.5095 12.5672 29.5844C12.3146 29.6593 12.0496 29.6835 11.7875 29.6556C11.5255 29.6277 11.2715 29.5483 11.0402 29.422C10.809 29.2956 10.6049 29.1248 10.4399 28.9193C10.2738 28.7148 10.1497 28.4794 10.0748 28.2267C9.99996 27.974 9.97578 27.709 10.0037 27.447C10.0315 27.1849 10.1109 26.931 10.2373 26.6997C10.3636 26.4684 10.5344 26.2644 10.7399 26.0993L22.7399 16.4394C23.0978 16.1452 23.5466 15.9844 24.0099 15.9844C24.4731 15.9844 24.922 16.1452 25.2799 16.4394L37.2799 26.4394C37.4824 26.6072 37.6498 26.8134 37.7725 27.0461C37.8952 27.2788 37.9708 27.5335 37.995 27.7954C38.0191 28.0574 37.9913 28.3215 37.9133 28.5727C37.8352 28.8239 37.7083 29.0573 37.5399 29.2593C37.3538 29.4888 37.1192 29.6741 36.8529 29.8021C36.5866 29.93 36.2953 29.9974 35.9999 29.9993Z" fill="white"/>
</g>
</svg>
