<svg width="30" height="24" viewBox="0 0 30 24" fill="none" xmlns="http://www.w3.org/2000/svg">
<g clip-path="url(#clip0)">
<path d="M3.10425 9.23077L12.2302 18.8221L7.83569 9.23077H3.10425ZM14.9988 20.3654L20.1111 9.23077H9.88647L14.9988 20.3654ZM7.87964 7.38462L10.8679 1.84615H7.03003L2.81128 7.38462H7.87964ZM17.7673 18.8221L26.8933 9.23077H22.1619L17.7673 18.8221ZM10.0037 7.38462H19.9939L17.0056 1.84615H12.9919L10.0037 7.38462ZM22.1179 7.38462H27.1863L22.9675 1.84615H19.1296L22.1179 7.38462ZM24.1833 0.375L29.8083 7.75962C29.9451 7.93269 30.0085 8.13221 29.9988 8.35817C29.989 8.58414 29.906 8.77885 29.7498 8.94231L15.6873 23.7115C15.5115 23.9038 15.282 24 14.9988 24C14.7156 24 14.4861 23.9038 14.3103 23.7115L0.247803 8.94231C0.0915527 8.77885 0.00854492 8.58414 -0.0012207 8.35817C-0.0109863 8.13221 0.0524902 7.93269 0.189209 7.75962L5.81421 0.375C5.98999 0.125 6.23901 0 6.56128 0H23.4363C23.7585 0 24.0076 0.125 24.1833 0.375Z" fill="#FFD348"/>
</g>
<defs>
<clipPath id="clip0">
<rect width="30" height="24" fill="white"/>
</clipPath>
</defs>
</svg>
