<svg width="32" height="32" viewBox="0 0 32 32" fill="none" xmlns="http://www.w3.org/2000/svg">
<g opacity="0.5">
<path d="M8.80002 3.19995C8.1635 3.19995 7.55306 3.45281 7.10297 3.90289C6.65288 4.35298 6.40002 4.96343 6.40002 5.59995V26.4C6.40002 27.0365 6.65288 27.6469 7.10297 28.097C7.55306 28.5471 8.1635 28.7999 8.80002 28.7999H16.4112C16.0037 28.3064 15.6512 27.7699 15.36 27.1999H8.80002C8.58785 27.1999 8.38437 27.1157 8.23434 26.9656C8.08431 26.8156 8.00002 26.6121 8.00002 26.4V5.59995C8.00002 5.38778 8.08431 5.18429 8.23434 5.03427C8.38437 4.88424 8.58785 4.79995 8.80002 4.79995H20C20.2122 4.79995 20.4157 4.88424 20.5657 5.03427C20.7157 5.18429 20.8 5.38778 20.8 5.59995V14.7311C21.323 14.5831 21.8587 14.484 22.4 14.4352V5.59995C22.4 4.96343 22.1472 4.35298 21.6971 3.90289C21.247 3.45281 20.6365 3.19995 20 3.19995H8.80002ZM14.4 23.1999C14.4 22.9312 14.4128 22.6639 14.4352 22.4H12C11.7879 22.4 11.5844 22.4842 11.4343 22.6343C11.2843 22.7843 11.2 22.9878 11.2 23.1999C11.2 23.4121 11.2843 23.6156 11.4343 23.7656C11.5844 23.9157 11.7879 24 12 24H14.4352C14.4115 23.7339 14.3998 23.467 14.4 23.1999ZM23.2 30.4C25.1096 30.4 26.9409 29.6414 28.2912 28.2911C29.6415 26.9409 30.4 25.1095 30.4 23.1999C30.4 21.2904 29.6415 19.459 28.2912 18.1088C26.9409 16.7585 25.1096 16 23.2 16C21.2905 16 19.4591 16.7585 18.1089 18.1088C16.7586 19.459 16 21.2904 16 23.1999C16 25.1095 16.7586 26.9409 18.1089 28.2911C19.4591 29.6414 21.2905 30.4 23.2 30.4ZM26.9664 21.3664L22.1664 26.1663C22.0921 26.2409 22.0038 26.3 21.9066 26.3403C21.8094 26.3806 21.7053 26.4014 21.6 26.4014C21.4948 26.4014 21.3906 26.3806 21.2934 26.3403C21.1962 26.3 21.1079 26.2409 21.0336 26.1663L19.4336 24.5664C19.2834 24.4161 19.199 24.2124 19.199 24C19.199 23.7875 19.2834 23.5838 19.4336 23.4335C19.5838 23.2833 19.7876 23.1989 20 23.1989C20.2125 23.1989 20.4162 23.2833 20.5664 23.4335L21.6 24.4688L25.8336 20.2335C25.9838 20.0833 26.1876 19.9989 26.4 19.9989C26.6125 19.9989 26.8162 20.0833 26.9664 20.2335C27.1166 20.3838 27.201 20.5875 27.201 20.7999C27.201 21.0124 27.1166 21.2161 26.9664 21.3664Z" fill="white"/>
</g>
</svg>
