<svg width="160" height="160" viewBox="0 0 160 160" fill="none" xmlns="http://www.w3.org/2000/svg">
<path d="M121.667 20C126.529 20 131.192 21.9315 134.63 25.3697C138.068 28.8079 140 33.471 140 38.3333V120.333C136.004 121.15 132.446 123.403 130 126.667C129.704 126.271 129.39 125.888 129.06 125.52C129.66 124.367 130 123.053 130 121.667V38.3333C130 33.7333 126.267 30 121.667 30H38.3333C33.7333 30 30 33.7333 30 38.3333V121.667C30 126.267 33.7333 130 38.3333 130H74.72C73.3439 133.144 72.9759 136.638 73.6667 140H38.3333C35.9258 140 33.5418 139.526 31.3175 138.604C29.0932 137.683 27.0721 136.333 25.3697 134.63C21.9315 131.192 20 126.529 20 121.667V38.3333C20 33.471 21.9315 28.8079 25.3697 25.3697C28.8079 21.9315 33.471 20 38.3333 20H121.667ZM95 76.6667H45L44.32 76.7133C43.065 76.886 41.9223 77.5286 41.1229 78.5113C40.3234 79.4941 39.9268 80.7436 40.0132 82.0075C40.0995 83.2713 40.6624 84.4553 41.5881 85.3202C42.5137 86.185 43.7332 86.6663 45 86.6667H95L95.68 86.62C96.935 86.4473 98.0777 85.8047 98.8771 84.822C99.6766 83.8393 100.073 82.5897 99.9868 81.3259C99.9005 80.062 99.3376 78.878 98.4119 78.0132C97.4863 77.1483 96.2668 76.6671 95 76.6667ZM45 103.333H115C116.267 103.334 117.486 103.815 118.412 104.68C119.338 105.545 119.9 106.729 119.987 107.993C120.073 109.256 119.677 110.506 118.877 111.489C118.078 112.471 116.935 113.114 115.68 113.287L115 113.333H45C43.7332 113.333 42.5137 112.852 41.5881 111.987C40.6624 111.122 40.0995 109.938 40.0132 108.674C39.9268 107.41 40.3234 106.161 41.1229 105.178C41.9223 104.195 43.065 103.553 44.32 103.38L45 103.333ZM115 50H45L44.32 50.0467C43.065 50.2193 41.9223 50.862 41.1229 51.8447C40.3234 52.8274 39.9268 54.0769 40.0132 55.3408C40.0995 56.6047 40.6624 57.7887 41.5881 58.6535C42.5137 59.5184 43.7332 59.9996 45 60H115L115.68 59.9533C116.935 59.7807 118.078 59.138 118.877 58.1553C119.677 57.1726 120.073 55.9231 119.987 54.6592C119.9 53.3953 119.338 52.2113 118.412 51.3465C117.486 50.4816 116.267 50.0004 115 50ZM90 146.667C92.6522 146.667 95.1957 145.613 97.0711 143.738C98.9464 141.862 100 139.319 100 136.667C100 134.015 98.9464 131.471 97.0711 129.596C95.1957 127.72 92.6522 126.667 90 126.667C87.3478 126.667 84.8043 127.72 82.9289 129.596C81.0536 131.471 80 134.015 80 136.667C80 139.319 81.0536 141.862 82.9289 143.738C84.8043 145.613 87.3478 146.667 90 146.667ZM116.667 146.667C119.319 146.667 121.862 145.613 123.738 143.738C125.613 141.862 126.667 139.319 126.667 136.667C126.667 134.015 125.613 131.471 123.738 129.596C121.862 127.72 119.319 126.667 116.667 126.667C114.014 126.667 111.471 127.72 109.596 129.596C107.72 131.471 106.667 134.015 106.667 136.667C106.667 139.319 107.72 141.862 109.596 143.738C111.471 145.613 114.014 146.667 116.667 146.667ZM153.333 136.667C153.333 139.319 152.28 141.862 150.404 143.738C148.529 145.613 145.985 146.667 143.333 146.667C140.681 146.667 138.138 145.613 136.262 143.738C134.387 141.862 133.333 139.319 133.333 136.667C133.333 134.015 134.387 131.471 136.262 129.596C138.138 127.72 140.681 126.667 143.333 126.667C145.985 126.667 148.529 127.72 150.404 129.596C152.28 131.471 153.333 134.015 153.333 136.667Z" fill="currentColor"/>
</svg>
