<svg width="48" height="48" viewBox="0 0 48 48" fill="none" xmlns="http://www.w3.org/2000/svg">
<path d="M12.576 8.58685L4.58599 16.5869L4.41799 16.7768C4.11975 17.1619 3.97225 17.6425 4.00319 18.1286C4.03412 18.6147 4.24135 19.0727 4.58599 19.4169L4.77599 19.5829C5.16104 19.8811 5.64168 20.0286 6.12774 19.9977C6.6138 19.9667 7.07186 19.7595 7.41599 19.4148L12 14.8208V38.0008L12.014 38.2348C12.0709 38.7217 12.3045 39.1707 12.6706 39.4967C13.0368 39.8226 13.5098 40.0027 14 40.0028L14.234 39.9888C14.7208 39.9315 15.1697 39.6973 15.4952 39.3308C15.8208 38.9644 16.0004 38.4911 16 38.0008V14.8348L20.586 19.4148L20.776 19.5829C21.178 19.8975 21.6852 20.0465 22.1935 19.9993C22.7018 19.9521 23.1729 19.7123 23.5101 19.329C23.8473 18.9458 24.0253 18.448 24.0074 17.9378C23.9895 17.4276 23.7772 16.9436 23.414 16.5848L15.402 8.58485L15.214 8.41885C14.829 8.1206 14.3483 7.97311 13.8623 8.00404C13.3762 8.03497 12.9181 8.2422 12.574 8.58685H12.576ZM34 8.00685L33.766 8.02085C33.2795 8.07816 32.8309 8.31204 32.5054 8.67811C32.1799 9.04418 32.0001 9.51698 32 10.0068V33.1668L27.414 28.5868L27.224 28.4188C26.8218 28.1079 26.3163 27.9617 25.8102 28.0101C25.3042 28.0585 24.8355 28.2978 24.4996 28.6794C24.1636 29.0609 23.9856 29.5561 24.0016 30.0642C24.0177 30.5723 24.2266 31.0553 24.586 31.4148L32.594 39.4149L32.782 39.5828C33.167 39.8811 33.6477 40.0286 34.1337 39.9977C34.6198 39.9667 35.0779 39.7595 35.422 39.4149L43.414 31.4148L43.582 31.2248C43.8802 30.8398 44.0277 30.3592 43.9968 29.8731C43.9659 29.387 43.7586 28.929 43.414 28.5848L43.224 28.4188C42.839 28.1206 42.3583 27.9731 41.8723 28.004C41.3862 28.035 40.9281 28.2422 40.584 28.5868L36 33.1748V10.0068L35.986 9.77485C35.9291 9.28799 35.6955 8.83895 35.3293 8.51303C34.9632 8.1871 34.4902 8.00697 34 8.00685Z" fill="white"/>
</svg>
