<svg width="32" height="32" viewBox="0 0 32 32" fill="none" xmlns="http://www.w3.org/2000/svg">
<g opacity="0.5">
<path d="M16 9.33475C16.3536 9.33475 16.6928 9.19428 16.9428 8.94423C17.1929 8.69418 17.3333 8.35504 17.3333 8.00142C17.3333 7.6478 17.1929 7.30866 16.9428 7.05861C16.6928 6.80856 16.3536 6.66809 16 6.66809C15.6464 6.66809 15.3072 6.80856 15.0572 7.05861C14.8071 7.30866 14.6667 7.6478 14.6667 8.00142C14.6667 8.35504 14.8071 8.69418 15.0572 8.94423C15.3072 9.19428 15.6464 9.33475 16 9.33475ZM16.8973 2.96475C16.6382 2.77128 16.3234 2.66675 16 2.66675C15.6766 2.66675 15.3618 2.77128 15.1027 2.96475L4.47333 10.8994C3.57333 11.5708 4.04867 13.0008 5.17067 13.0008H6V21.0041C5.40152 21.288 4.89589 21.7359 4.54186 22.2957C4.18782 22.8555 3.99993 23.5044 4 24.1668V26.5001C4 26.9601 4.37333 27.3334 4.83333 27.3334H15.248C14.9883 26.8086 14.8129 26.2461 14.728 25.6668H5.66667V24.1668C5.66667 23.6805 5.85982 23.2142 6.20364 22.8704C6.54745 22.5266 7.01377 22.3334 7.5 22.3334H15.248C15.6215 21.5784 16.164 20.9196 16.8333 20.4081V13.0001H19.6667V19.3441C19.7776 19.337 19.8888 19.3335 20 19.3334H21.3333V13.0001H24.3333V19.3334H26V13.0001H26.8293C27.952 13.0001 28.4267 11.5701 27.5273 10.8988L16.8973 2.96475ZM15.1667 20.6668H12.3333V13.0001H15.1667V20.6668ZM10.6667 20.6668H7.66667V13.0001H10.6667V20.6668ZM6.676 11.3334L16 4.37409L25.3233 11.3341H6.676V11.3334ZM20.1667 20.6668C19.6151 20.6598 19.0676 20.7624 18.556 20.9686C18.0444 21.1749 17.5789 21.4807 17.1864 21.8682C16.7939 22.2558 16.4822 22.7175 16.2695 23.2264C16.0568 23.7354 15.9473 24.2815 15.9473 24.8331C15.9473 25.3847 16.0568 25.9308 16.2695 26.4398C16.4822 26.9487 16.7939 27.4104 17.1864 27.7979C17.5789 28.1855 18.0444 28.4913 18.556 28.6975C19.0676 28.9038 19.6151 29.0064 20.1667 28.9994H21.1667C21.3877 28.9994 21.5996 28.9116 21.7559 28.7553C21.9122 28.5991 22 28.3871 22 28.1661C22 27.9451 21.9122 27.7331 21.7559 27.5768C21.5996 27.4205 21.3877 27.3328 21.1667 27.3328H20.1667C19.5036 27.3328 18.8677 27.0694 18.3989 26.6005C17.9301 26.1317 17.6667 25.4958 17.6667 24.8328C17.6667 24.1697 17.9301 23.5338 18.3989 23.065C18.8677 22.5961 19.5036 22.3328 20.1667 22.3328H21.1667C21.3877 22.3328 21.5996 22.245 21.7559 22.0887C21.9122 21.9324 22 21.7204 22 21.4994C22 21.2784 21.9122 21.0664 21.7559 20.9102C21.5996 20.7539 21.3877 20.6661 21.1667 20.6661H20.1667V20.6668ZM26.5 20.6668C27.0516 20.6598 27.599 20.7624 28.1106 20.9686C28.6222 21.1749 29.0878 21.4807 29.4803 21.8682C29.8728 22.2558 30.1844 22.7175 30.3971 23.2264C30.6098 23.7354 30.7194 24.2815 30.7194 24.8331C30.7194 25.3847 30.6098 25.9308 30.3971 26.4398C30.1844 26.9487 29.8728 27.4104 29.4803 27.7979C29.0878 28.1855 28.6222 28.4913 28.1106 28.6975C27.599 28.9038 27.0516 29.0064 26.5 28.9994H25.5C25.279 28.9994 25.067 28.9116 24.9107 28.7553C24.7545 28.5991 24.6667 28.3871 24.6667 28.1661C24.6667 27.9451 24.7545 27.7331 24.9107 27.5768C25.067 27.4205 25.279 27.3328 25.5 27.3328H26.5C27.163 27.3328 27.7989 27.0694 28.2678 26.6005C28.7366 26.1317 29 25.4958 29 24.8328C29 24.1697 28.7366 23.5338 28.2678 23.065C27.7989 22.5961 27.163 22.3328 26.5 22.3328H25.5C25.279 22.3328 25.067 22.245 24.9107 22.0887C24.7545 21.9324 24.6667 21.7204 24.6667 21.4994C24.6667 21.2784 24.7545 21.0664 24.9107 20.9102C25.067 20.7539 25.279 20.6661 25.5 20.6661H26.5V20.6668ZM19.3333 24.8334C19.3333 24.3728 19.7067 24.0001 20.1667 24.0001H26.5C26.721 24.0001 26.933 24.0879 27.0893 24.2442C27.2455 24.4004 27.3333 24.6124 27.3333 24.8334C27.3333 25.0544 27.2455 25.2664 27.0893 25.4227C26.933 25.579 26.721 25.6668 26.5 25.6668H20.1667C19.7067 25.6668 19.3333 25.2934 19.3333 24.8334Z" fill="white"/>
</g>
</svg>
