<svg width="160" height="160" viewBox="0 0 160 160" fill="none" xmlns="http://www.w3.org/2000/svg">
<path d="M118.366 93.3329C123.566 93.3329 128.139 95.9796 130.833 99.9996H89.9994C86.2461 99.9996 82.7861 101.24 79.9994 103.333H41.6861C41.0292 103.332 40.3786 103.461 39.7716 103.712C39.1646 103.963 38.6131 104.331 38.1486 104.795C37.6841 105.26 37.3159 105.811 37.0649 106.418C36.8139 107.025 36.6852 107.676 36.6861 108.333V112.18C36.6861 115.746 37.9661 119.2 40.2861 121.913C47.5861 130.466 58.5127 135.353 73.3327 136.446V143.333C73.3327 144.406 73.4327 145.466 73.6327 146.48C55.7861 145.353 42.0327 139.373 32.6794 128.413C28.8153 123.887 26.6925 118.131 26.6927 112.18V108.326C26.6927 104.35 28.2724 100.536 31.0842 97.7243C33.896 94.9125 37.7096 93.3329 41.6861 93.3329H118.366ZM79.9994 13.3662C84.3768 13.3662 88.7113 14.2284 92.7555 15.9036C96.7997 17.5787 100.474 20.034 103.57 23.1293C106.665 26.2246 109.12 29.8992 110.795 33.9434C112.471 37.9876 113.333 42.3222 113.333 46.6995C113.333 51.0769 112.471 55.4115 110.795 59.4557C109.12 63.4998 106.665 67.1745 103.57 70.2698C100.474 73.3651 96.7997 75.8204 92.7555 77.4955C88.7113 79.1707 84.3768 80.0329 79.9994 80.0329C71.1589 80.0329 62.6804 76.521 56.4292 70.2698C50.178 64.0186 46.6661 55.5401 46.6661 46.6995C46.6661 37.859 50.178 29.3805 56.4292 23.1293C62.6804 16.8781 71.1589 13.3662 79.9994 13.3662ZM79.9994 23.3662C76.9352 23.3662 73.9011 23.9697 71.0701 25.1424C68.2392 26.315 65.667 28.0337 63.5003 30.2004C61.3336 32.3671 59.6148 34.9393 58.4422 37.7703C57.2696 40.6012 56.6661 43.6354 56.6661 46.6995C56.6661 49.7637 57.2696 52.7979 58.4422 55.6288C59.6148 58.4598 61.3336 61.032 63.5003 63.1987C65.667 65.3654 68.2392 67.0841 71.0701 68.2567C73.9011 69.4294 76.9352 70.0329 79.9994 70.0329C86.1878 70.0329 92.1227 67.5746 96.4986 63.1987C100.874 58.8229 103.333 52.8879 103.333 46.6995C103.333 40.5112 100.874 34.5762 96.4986 30.2004C92.1227 25.8245 86.1878 23.3662 79.9994 23.3662ZM79.9994 116.666C79.9994 114.014 81.053 111.471 82.9283 109.595C84.8037 107.72 87.3472 106.666 89.9994 106.666H143.333C145.985 106.666 148.528 107.72 150.404 109.595C152.279 111.471 153.333 114.014 153.333 116.666V143.333C153.333 145.985 152.279 148.529 150.404 150.404C148.528 152.279 145.985 153.333 143.333 153.333H89.9994C87.3472 153.333 84.8037 152.279 82.9283 150.404C81.053 148.529 79.9994 145.985 79.9994 143.333V116.666ZM146.666 120C144.898 120 143.202 119.297 141.952 118.047C140.702 116.797 139.999 115.101 139.999 113.333H133.333C133.333 116.869 134.738 120.26 137.238 122.761C139.738 125.261 143.13 126.666 146.666 126.666V120ZM146.666 133.333C143.13 133.333 139.738 134.738 137.238 137.238C134.738 139.739 133.333 143.13 133.333 146.666H139.999C139.999 144.898 140.702 143.202 141.952 141.952C143.202 140.702 144.898 140 146.666 140V133.333ZM93.3327 113.333C93.3327 115.101 92.6304 116.797 91.3801 118.047C90.1299 119.297 88.4342 120 86.6661 120V126.666C90.2023 126.666 93.5937 125.261 96.0942 122.761C98.5947 120.26 99.9994 116.869 99.9994 113.333H93.3327ZM99.9994 146.666C99.9994 143.13 98.5947 139.739 96.0942 137.238C93.5937 134.738 90.2023 133.333 86.6661 133.333V140C88.4342 140 90.1299 140.702 91.3801 141.952C92.6304 143.202 93.3327 144.898 93.3327 146.666H99.9994ZM128.333 130C128.333 126.905 127.104 123.938 124.916 121.75C122.728 119.562 119.76 118.333 116.666 118.333C113.572 118.333 110.604 119.562 108.417 121.75C106.229 123.938 104.999 126.905 104.999 130C104.999 133.094 106.229 136.061 108.417 138.249C110.604 140.437 113.572 141.666 116.666 141.666C119.76 141.666 122.728 140.437 124.916 138.249C127.104 136.061 128.333 133.094 128.333 130Z" fill="currentColor"/>
</svg>
