<svg width="32" height="32" viewBox="0 0 32 32" fill="none" xmlns="http://www.w3.org/2000/svg">
<path d="M18 16.6678C18.4971 16.6679 18.9765 16.8531 19.3445 17.1873C19.7126 17.5216 19.9429 17.981 19.9906 18.4758L20 18.6665V19.9998H18C17.1159 19.9998 16.2681 20.351 15.6429 20.9761C15.0178 21.6013 14.6666 22.4491 14.6666 23.3332V27.6278C13.5733 27.8782 12.4549 28.003 11.3333 27.9998C7.70396 27.9998 2.88663 26.7252 2.67329 22.3065L2.66663 21.9998V18.6665C2.66665 18.1693 2.85185 17.69 3.18612 17.3219C3.52038 16.9539 3.97975 16.7236 4.47463 16.6758L4.66663 16.6665L18 16.6678ZM28.6666 19.9998C28.8946 19.9998 29.1173 20.0225 29.3333 20.0665V18.6665L29.324 18.4732C29.2759 17.9785 29.0454 17.5195 28.6774 17.1855C28.3094 16.8515 27.8303 16.6665 27.3333 16.6665H20.6506L20.8013 16.8825C21.1346 17.3985 21.3333 18.0078 21.3333 18.6665V19.9998H28.6666ZM11.3333 2.6665C12.1212 2.6665 12.9014 2.8217 13.6294 3.12323C14.3573 3.42476 15.0188 3.86671 15.5759 4.42386C16.1331 4.98101 16.575 5.64245 16.8766 6.3704C17.1781 7.09836 17.3333 7.87857 17.3333 8.6665C17.3333 9.45444 17.1781 10.2347 16.8766 10.9626C16.575 11.6906 16.1331 12.352 15.5759 12.9091C15.0188 13.4663 14.3573 13.9083 13.6294 14.2098C12.9014 14.5113 12.1212 14.6665 11.3333 14.6665C9.74199 14.6665 8.21587 14.0344 7.09065 12.9091C5.96543 11.7839 5.33329 10.2578 5.33329 8.6665C5.33329 7.07521 5.96543 5.54908 7.09065 4.42386C8.21587 3.29864 9.74199 2.6665 11.3333 2.6665ZM23.3333 5.33317C24.571 5.33317 25.758 5.82484 26.6331 6.70001C27.5083 7.57518 28 8.76216 28 9.99984C28 11.2375 27.5083 12.4245 26.6331 13.2997C25.758 14.1748 24.571 14.6665 23.3333 14.6665C22.0956 14.6665 20.9086 14.1748 20.0335 13.2997C19.1583 12.4245 18.6666 11.2375 18.6666 9.99984C18.6666 8.76216 19.1583 7.57518 20.0335 6.70001C20.9086 5.82484 22.0956 5.33317 23.3333 5.33317ZM16 23.3332C16 22.8027 16.2107 22.294 16.5857 21.919C16.9608 21.5439 17.4695 21.3332 18 21.3332H28.6666C29.1971 21.3332 29.7058 21.5439 30.0808 21.919C30.4559 22.294 30.6666 22.8027 30.6666 23.3332V28.6665C30.6666 29.1969 30.4559 29.7056 30.0808 30.0807C29.7058 30.4558 29.1971 30.6665 28.6666 30.6665H18C17.4695 30.6665 16.9608 30.4558 16.5857 30.0807C16.2107 29.7056 16 29.1969 16 28.6665V23.3332ZM29.3333 23.9998C28.9797 23.9998 28.6405 23.8594 28.3905 23.6093C28.1404 23.3593 28 23.0201 28 22.6665H26.6666C26.6666 23.3737 26.9476 24.052 27.4477 24.5521C27.9478 25.0522 28.626 25.3332 29.3333 25.3332V23.9998ZM29.3333 26.6665C28.626 26.6665 27.9478 26.9475 27.4477 27.4476C26.9476 27.9477 26.6666 28.6259 26.6666 29.3332H28C28 28.9795 28.1404 28.6404 28.3905 28.3904C28.6405 28.1403 28.9797 27.9998 29.3333 27.9998V26.6665ZM18.6666 22.6665C18.6666 23.0201 18.5262 23.3593 18.2761 23.6093C18.0261 23.8594 17.6869 23.9998 17.3333 23.9998V25.3332C18.0405 25.3332 18.7188 25.0522 19.2189 24.5521C19.719 24.052 20 23.3737 20 22.6665H18.6666ZM20 29.3332C20 28.6259 19.719 27.9477 19.2189 27.4476C18.7188 26.9475 18.0405 26.6665 17.3333 26.6665V27.9998C17.6869 27.9998 18.0261 28.1403 18.2761 28.3904C18.5262 28.6404 18.6666 28.9795 18.6666 29.3332H20ZM25.6666 25.9998C25.6666 25.381 25.4208 24.7875 24.9832 24.3499C24.5456 23.9123 23.9521 23.6665 23.3333 23.6665C22.7145 23.6665 22.121 23.9123 21.6834 24.3499C21.2458 24.7875 21 25.381 21 25.9998C21 26.6187 21.2458 27.2122 21.6834 27.6498C22.121 28.0873 22.7145 28.3332 23.3333 28.3332C23.9521 28.3332 24.5456 28.0873 24.9832 27.6498C25.4208 27.2122 25.6666 26.6187 25.6666 25.9998Z" fill="white"/>
</svg>
