<svg width="160" height="160" viewBox="0 0 160 160" fill="none" xmlns="http://www.w3.org/2000/svg">
<path fill-rule="evenodd" clip-rule="evenodd" d="M144.335 105.458C149.5 97.3552 152.237 87.9426 152.222 78.3333C152.222 50.4111 129.589 27.7778 101.667 27.7778C91.6839 27.7778 82.3778 30.6712 74.5417 35.6606C69.3267 35.9531 64.165 36.8643 59.165 38.375C64.6139 32.5656 71.1978 27.9371 78.5087 24.7764C85.8196 21.6156 93.7018 19.9899 101.667 20C133.882 20 160 46.1178 160 78.3333C160 95.0867 152.938 110.195 141.625 120.835C143.107 115.923 144.036 110.774 144.335 105.458Z" fill="currentColor"/>
<path fill-rule="evenodd" clip-rule="evenodd" d="M151.962 107.901C149.146 112.68 145.665 117.035 141.625 120.835C143.107 115.923 144.036 110.774 144.335 105.458C149.5 97.3552 152.237 87.9426 152.222 78.3334C152.222 50.4112 129.589 27.7778 101.667 27.7778C91.6839 27.7778 82.3778 30.6712 74.5417 35.6606C69.3267 35.9531 64.165 36.8643 59.165 38.3751C62.9655 34.3346 67.3204 30.8544 72.0995 28.0384C81.0576 22.7598 91.2689 19.9837 101.667 20.0001C133.882 20.0001 160 46.1178 160 78.3334C160.018 88.7313 157.242 98.9432 151.962 107.901Z" fill="currentColor"/>
<path fill-rule="evenodd" clip-rule="evenodd" d="M78.3332 152.222C106.255 152.222 128.889 129.589 128.889 101.666C128.889 73.7441 106.255 51.1108 78.3332 51.1108C50.4111 51.1108 27.7778 73.7441 27.7778 101.666C27.7778 129.589 50.4111 152.222 78.3332 152.222ZM78.3332 160C110.549 160 136.666 133.882 136.666 101.666C136.666 69.4508 110.549 43.333 78.3332 43.333C46.1177 43.333 20 69.4508 20 101.666C20 133.882 46.1177 160 78.3332 160Z" fill="currentColor"/>
<path fill-rule="evenodd" clip-rule="evenodd" d="M74.4444 82.2216C72.3817 82.2216 70.4034 83.0411 68.9447 84.4997C67.4861 85.9583 66.6667 87.9366 66.6667 89.9994C66.6667 92.0622 67.4861 94.0405 68.9447 95.4991C70.4034 96.9577 72.3817 97.7772 74.4444 97.7772H82.2222C86.3478 97.7772 90.3044 99.4161 93.2216 102.333C96.1389 105.251 97.7777 109.207 97.7777 113.333C97.7777 117.458 96.1389 121.415 93.2216 124.332C90.3044 127.249 86.3478 128.888 82.2222 128.888H74.4444C71.2271 128.888 68.0889 127.891 65.4619 126.033C62.8349 124.176 60.8483 121.55 59.7756 118.517C59.5885 118.031 59.5007 117.514 59.5172 116.994C59.5337 116.474 59.6543 115.963 59.8718 115.491C60.0893 115.019 60.3994 114.595 60.7835 114.244C61.1677 113.894 61.6183 113.624 62.1086 113.451C62.5989 113.278 63.1189 113.204 63.6379 113.236C64.157 113.267 64.6645 113.402 65.1304 113.633C65.5964 113.864 66.0113 114.186 66.3506 114.58C66.69 114.974 66.9469 115.432 67.1061 115.927C67.6433 117.443 68.6374 118.756 69.9516 119.685C71.2658 120.613 72.8354 121.111 74.4444 121.11H82.2222C84.285 121.11 86.2633 120.291 87.7219 118.832C89.1805 117.374 90 115.396 90 113.333C90 111.27 89.1805 109.292 87.7219 107.833C86.2633 106.374 84.285 105.555 82.2222 105.555H74.4444C70.3189 105.555 66.3623 103.916 63.445 100.999C60.5278 98.0816 58.8889 94.125 58.8889 89.9994C58.8889 85.8738 60.5278 81.9172 63.445 79C66.3623 76.0827 70.3189 74.4438 74.4444 74.4438H82.2222C85.4395 74.4439 88.5777 75.4413 91.2047 77.2987C93.8318 79.1562 95.8184 81.7823 96.8911 84.8155C97.0781 85.3007 97.166 85.8184 97.1495 86.3382C97.1329 86.8579 97.0124 87.369 96.7948 87.8413C96.5773 88.3136 96.2673 88.7375 95.8831 89.0879C95.4989 89.4383 95.0484 89.7081 94.5581 89.8813C94.0678 90.0545 93.5478 90.1276 93.0287 90.0964C92.5097 90.0651 92.0022 89.9301 91.5362 89.6992C91.0703 89.4684 90.6554 89.1465 90.316 88.7525C89.9767 88.3585 89.7198 87.9005 89.5605 87.4055C89.0234 85.8888 88.0293 84.5759 86.7151 83.6475C85.4009 82.7191 83.8312 82.221 82.2222 82.2216H74.4444Z" fill="currentColor"/>
<path fill-rule="evenodd" clip-rule="evenodd" d="M74.4443 132.778V70.5562H82.2221V132.778H74.4443Z" fill="currentColor"/>
</svg>
