<svg width="40" height="40" viewBox="0 0 40 40" fill="none" xmlns="http://www.w3.org/2000/svg">
<path d="M26 12C26 13.5913 25.3679 15.1174 24.2426 16.2426C23.1174 17.3679 21.5913 18 20 18C18.4087 18 16.8826 17.3679 15.7574 16.2426C14.6321 15.1174 14 13.5913 14 12C14 10.4087 14.6321 8.88258 15.7574 7.75736C16.8826 6.63214 18.4087 6 20 6C21.5913 6 23.1174 6.63214 24.2426 7.75736C25.3679 8.88258 26 10.4087 26 12Z" fill="white"/>
<path d="M36 16C36 17.0609 35.5786 18.0783 34.8284 18.8284C34.0783 19.5786 33.0609 20 32 20C30.9391 20 29.9217 19.5786 29.1716 18.8284C28.4214 18.0783 28 17.0609 28 16C28 14.9391 28.4214 13.9217 29.1716 13.1716C29.9217 12.4214 30.9391 12 32 12C33.0609 12 34.0783 12.4214 34.8284 13.1716C35.5786 13.9217 36 14.9391 36 16Z" fill="white"/>
<path d="M28 30C28 27.8783 27.1571 25.8434 25.6569 24.3431C24.1566 22.8429 22.1217 22 20 22C17.8783 22 15.8434 22.8429 14.3431 24.3431C12.8429 25.8434 12 27.8783 12 30V36H28V30Z" fill="white"/>
<path d="M12 16C12 17.0609 11.5786 18.0783 10.8284 18.8284C10.0783 19.5786 9.06087 20 8 20C6.93913 20 5.92172 19.5786 5.17157 18.8284C4.42143 18.0783 4 17.0609 4 16C4 14.9391 4.42143 13.9217 5.17157 13.1716C5.92172 12.4214 6.93913 12 8 12C9.06087 12 10.0783 12.4214 10.8284 13.1716C11.5786 13.9217 12 14.9391 12 16Z" fill="white"/>
<path d="M32 35.9996V29.9996C32.0029 27.9662 31.4866 25.9657 30.5 24.1876C31.3867 23.9607 32.3135 23.9393 33.2097 24.1251C34.1059 24.3108 34.9479 24.6988 35.6714 25.2595C36.3948 25.8201 36.9807 26.5386 37.3843 27.3601C37.7878 28.1815 37.9984 29.0844 38 29.9996V35.9996H32Z" fill="white"/>
<path d="M9.5 24.1886C8.5135 25.9667 7.9972 27.9671 8 30.0006V36.0006H2V30.0006C1.99962 29.0847 2.20893 28.1808 2.61189 27.3583C3.01486 26.5358 3.60079 25.8164 4.32477 25.2554C5.04875 24.6944 5.89156 24.3065 6.78862 24.1216C7.68568 23.9367 8.61317 23.9596 9.5 24.1886Z" fill="white"/>
</svg>
