<svg width="32" height="32" viewBox="0 0 32 32" fill="none" xmlns="http://www.w3.org/2000/svg">
<path d="M26.6666 16.0002C26.6666 14.9868 27.24 14.1068 28.08 13.6535C28.88 13.2135 29.3333 12.3068 29.3333 11.3868V8.00016C29.3333 6.5335 28.1333 5.3335 26.6666 5.3335H5.33329C3.86663 5.3335 2.67996 6.52016 2.67996 7.98683V11.3868C2.67996 12.3068 3.11996 13.2135 3.93329 13.6402C4.77329 14.1068 5.33329 14.9868 5.33329 16.0002C5.33329 17.0135 4.75996 17.9068 3.91996 18.3468C3.11996 18.7868 2.66663 19.6935 2.66663 20.6135V24.0002C2.66663 25.4668 3.86663 26.6668 5.33329 26.6668H26.6666C28.1333 26.6668 29.3333 25.4668 29.3333 24.0002V20.6135C29.3333 19.6935 28.88 18.7868 28.08 18.3468C27.24 17.8935 26.6666 17.0135 26.6666 16.0002ZM19.3333 21.4668L16 19.3335L12.6666 21.4802C12.16 21.8002 11.5066 21.3335 11.6666 20.7468L12.6666 16.9068L9.59996 14.4002C9.49611 14.3144 9.42048 14.1994 9.38289 14.0701C9.34531 13.9408 9.34752 13.8032 9.38924 13.6752C9.43096 13.5471 9.51025 13.4346 9.6168 13.3523C9.72335 13.2699 9.85221 13.2216 9.98663 13.2135L13.9333 12.9868L15.3733 9.32016C15.6 8.76016 16.4 8.76016 16.6133 9.32016L18.0533 13.0002L22 13.2268C22.6 13.2668 22.8533 14.0268 22.3866 14.4135L19.32 16.9202L20.3333 20.7335C20.4933 21.3335 19.84 21.8002 19.3333 21.4668Z" fill="white"/>
</svg>
