<svg width="56" height="56" viewBox="0 0 56 56" fill="none" xmlns="http://www.w3.org/2000/svg">
<path d="M18.6666 24.4997L25.8183 8.15239C25.9475 7.857 26.1364 7.59159 26.3733 7.37288C26.6102 7.15418 26.8898 6.98694 27.1945 6.88171C27.4993 6.77647 27.8225 6.73553 28.1439 6.76147C28.4652 6.7874 28.7777 6.87965 29.0616 7.03239L42 13.9997" stroke="white" stroke-width="4" stroke-linecap="round" stroke-linejoin="round"/>
<path d="M30.3333 36.1667V14H48.9999V47.8333H30.3333V43.1667" stroke="white" stroke-width="4" stroke-linecap="round" stroke-linejoin="round"/>
<path d="M4.66663 51.3333C15.1666 51.3333 16.065 45.1302 19.0516 44.6973C22.5785 44.1875 26.1706 43.925 29.2868 43.1667C32.1741 42.4614 35.0052 41.543 37.7568 40.4192C38.1845 40.2468 38.5377 39.9291 38.7543 39.522C39.4111 38.2608 40.5883 35.4783 38.4078 35.1272C35.5751 34.6722 26.8111 38.0135 22.316 37.4057C17.8208 36.799 19.4005 33.761 20.8168 32.8487C24.6633 30.3742 29.1666 31.5 29.1666 31.5V21C29.1666 21 12.0563 25.375 5.83329 32.8487" stroke="white" stroke-width="4" stroke-linecap="round" stroke-linejoin="round"/>
<path d="M37.3333 24.5H48.9999" stroke="white" stroke-width="4" stroke-linecap="round" stroke-linejoin="round"/>
</svg>
