<svg width="32" height="32" viewBox="0 0 32 32" fill="none" xmlns="http://www.w3.org/2000/svg">
<path d="M25.817 13.0095C25.9299 13.0054 26.0425 13.0252 26.148 13.0678C26.2535 13.1103 26.3498 13.1748 26.431 13.2572C26.5123 13.3397 26.577 13.4384 26.6211 13.5477C26.6653 13.6569 26.688 13.7743 26.688 13.893C26.688 14.0116 26.6653 14.1291 26.6211 14.2383C26.577 14.3475 26.5123 14.4463 26.431 14.5288C26.3498 14.6112 26.2535 14.6756 26.148 14.7182C26.0425 14.7608 25.9299 14.7806 25.817 14.7765H23.478V16.3514H25.817C25.9306 16.3455 26.0442 16.364 26.1508 16.4056C26.2574 16.4473 26.3549 16.5112 26.4373 16.5936C26.5197 16.676 26.5852 16.775 26.6301 16.8848C26.6749 16.9946 26.698 17.1128 26.698 17.2322C26.698 17.3517 26.6749 17.4699 26.6301 17.5797C26.5852 17.6894 26.5197 17.7885 26.4373 17.8709C26.3549 17.9533 26.2574 18.0172 26.1508 18.0588C26.0442 18.1005 25.9306 18.1189 25.817 18.1131H22.64C22.4179 18.1123 22.2052 18.0191 22.0483 17.8541C21.8915 17.689 21.8033 17.4654 21.803 17.2322V10.5548C21.803 10.0687 22.178 9.66971 22.64 9.66971H25.823C26.0389 9.68143 26.2423 9.77991 26.391 9.94475C26.5396 10.1096 26.6222 10.3282 26.6215 10.5552C26.6209 10.7822 26.5371 11.0003 26.3875 11.1642C26.2379 11.3281 26.034 11.4253 25.818 11.4357H23.479V13.0105L25.817 13.0095ZM20.683 17.2312C20.6812 17.465 20.5915 17.6886 20.4334 17.8534C20.2753 18.0182 20.0617 18.1108 19.839 18.111C19.7071 18.1124 19.5768 18.0815 19.4582 18.0208C19.3397 17.9601 19.2362 17.8713 19.156 17.7614L15.901 13.1134V17.2301C15.901 17.4638 15.8126 17.6878 15.6553 17.853C15.4979 18.0182 15.2845 18.111 15.062 18.111C14.8395 18.111 14.6261 18.0182 14.4687 17.853C14.3114 17.6878 14.223 17.4638 14.223 17.2301V10.5527C14.223 10.1758 14.458 9.8377 14.796 9.71696C14.8795 9.686 14.9675 9.67072 15.056 9.67181C15.316 9.67181 15.556 9.81985 15.717 10.0277L18.998 14.6862V10.5527C18.998 10.0666 19.373 9.66761 19.837 9.66761C20.301 9.66761 20.681 10.0666 20.681 10.5527L20.683 17.2312ZM13.027 17.2312C13.0259 17.4654 12.9365 17.6896 12.7783 17.8547C12.6201 18.0198 12.4061 18.1124 12.183 18.1121C11.9616 18.1101 11.7499 18.0165 11.5939 17.8515C11.4379 17.6866 11.3503 17.4636 11.35 17.2312V10.5537C11.35 10.0676 11.725 9.66866 12.189 9.66866C12.652 9.66866 13.028 10.0676 13.028 10.5537L13.027 17.2312ZM9.74 18.1121H6.557C6.33418 18.1115 6.12056 18.0187 5.96254 17.8538C5.80451 17.6889 5.71484 17.4651 5.713 17.2312V10.5537C5.713 10.0676 6.093 9.66866 6.557 9.66866C7.021 9.66866 7.396 10.0676 7.396 10.5537V16.3503H9.74C9.96252 16.3503 10.1759 16.4431 10.3333 16.6083C10.4906 16.7735 10.579 16.9976 10.579 17.2312C10.579 17.4648 10.4906 17.6889 10.3333 17.8541C10.1759 18.0193 9.96252 18.1121 9.74 18.1121ZM32 13.6373C32 6.1189 24.817 0 16 0C7.183 0 0 6.1189 0 13.6373C0 20.3746 5.693 26.0179 13.38 27.0899C13.901 27.2043 14.609 27.4511 14.792 27.9162C14.953 28.3361 14.896 28.9871 14.844 29.4312L14.625 30.858C14.562 31.279 14.302 32.5158 16.021 31.761C17.745 31.0061 25.245 26.0526 28.604 21.9936C30.901 19.3531 32 16.6401 32 13.6373Z" fill="white"/>
</svg>
