<svg width="40" height="38" viewBox="0 0 40 38" fill="none" xmlns="http://www.w3.org/2000/svg">
<path d="M0 8.53869V30.6488C0 32.6845 0.83682 34.494 2.17573 35.9077C3.51464 37.2649 5.24407 38 7.25244 38H18.1869V33.4196H7.25244C5.74617 33.4196 4.57462 32.1756 4.57462 30.6488V8.53869C4.57462 7.0119 5.74617 5.8244 7.25244 5.8244H18.1869V1.1875H7.25244C5.24407 1.1875 3.51464 1.97917 2.17573 3.33631C0.83682 4.75 0 6.50298 0 8.53869ZM11.9944 15.2113V24.0327C11.9944 25.0506 12.887 25.8988 13.8912 25.8988H23.9888V32.8542C23.9888 33.4762 24.3236 33.9851 24.8815 34.2679C25.1046 34.3244 25.3278 34.3244 25.4393 34.3244C25.8298 34.3244 26.1646 34.2113 26.4435 33.9286L39.5537 20.6399C40.1674 20.131 40.1116 19.1131 39.5537 18.5476L26.4435 5.31548C25.6625 4.46726 23.9888 4.97619 23.9888 6.33333V13.3452H13.8912C12.887 13.3452 11.9944 14.1935 11.9944 15.2113Z" fill="white"/>
</svg>
