<svg width="160" height="160" viewBox="0 0 160 160" fill="none" xmlns="http://www.w3.org/2000/svg">
<path fill-rule="evenodd" clip-rule="evenodd" d="M25 25C25 30.6267 26.86 35.82 30 40H18.3333C15.2391 40 12.2716 41.2292 10.0837 43.4171C7.89579 45.605 6.66663 48.5725 6.66663 51.6667V68.3333C6.66663 72.9867 9.39329 77 13.3333 78.88V135C13.3333 141.44 18.56 146.667 25 146.667H135C138.094 146.667 141.062 145.438 143.25 143.25C145.437 141.062 146.667 138.094 146.667 135V78.88C150.607 77.0067 153.333 72.9867 153.333 68.3333V51.6667C153.333 48.5725 152.104 45.605 149.916 43.4171C147.728 41.2292 144.761 40 141.667 40H130C132.786 36.2858 134.482 31.8692 134.899 27.2451C135.316 22.6211 134.437 17.9723 132.361 13.8197C130.284 9.66702 127.093 6.17459 123.143 3.73373C119.194 1.29287 114.643 0 110 0C100.293 0 87.0933 6.00667 80 20.7333C72.9066 6.00667 59.7 0 50 0C43.3695 0 37.0107 2.63392 32.3223 7.32233C27.6339 12.0107 25 18.3696 25 25ZM74.8 40C72.8866 16.7133 57.6666 10 50 10C46.0217 10 42.2064 11.5804 39.3934 14.3934C36.5803 17.2064 35 21.0218 35 25C35 28.9782 36.5803 32.7936 39.3934 35.6066C42.2064 38.4196 46.0217 40 50 40H74.8ZM136.667 80V135C136.667 135.442 136.491 135.866 136.178 136.179C135.866 136.491 135.442 136.667 135 136.667H85V80H136.667ZM75 136.667V80H23.3333V135C23.3333 135.92 24.08 136.667 25 136.667H75ZM141.667 70C142.109 70 142.533 69.8244 142.845 69.5118C143.158 69.1993 143.333 68.7754 143.333 68.3333V51.6667C143.333 51.2246 143.158 50.8007 142.845 50.4882C142.533 50.1756 142.109 50 141.667 50H85V70H141.667ZM18.3333 70H75V50H18.3333C17.8913 50 17.4673 50.1756 17.1548 50.4882C16.8422 50.8007 16.6666 51.2246 16.6666 51.6667V68.3333C16.6666 69.2533 17.4133 70 18.3333 70ZM125 25C125 28.9782 123.42 32.7936 120.607 35.6066C117.794 38.4196 113.978 40 110 40H85.2C87.1133 16.7133 102.333 10 110 10C113.978 10 117.794 11.5804 120.607 14.3934C123.42 17.2064 125 21.0218 125 25Z" fill="currentColor"/>
</svg>
