<svg width="48" height="48" viewBox="0 0 48 48" fill="none" xmlns="http://www.w3.org/2000/svg">
<path d="M42 19.2222V38.1111C42 38.6121 41.7998 39.0925 41.4435 39.4468C41.0872 39.801 40.6039 40 40.1 40H5.9C5.39609 40 4.91282 39.801 4.5565 39.4468C4.20018 39.0925 4 38.6121 4 38.1111V19.2222H42ZM42 15.4444H4V7.88889C4 7.38792 4.20018 6.90748 4.5565 6.55324C4.91282 6.19901 5.39609 6 5.9 6H40.1C40.6039 6 41.0872 6.19901 41.4435 6.55324C41.7998 6.90748 42 7.38792 42 7.88889V15.4444ZM28.7 30.5556V34.3333H36.3V30.5556H28.7Z" fill="white"/>
</svg>
