<svg width="56" height="56" viewBox="0 0 56 56" fill="none" xmlns="http://www.w3.org/2000/svg">
<path d="M39.6667 9.3335C43.3797 9.3335 46.9407 10.8085 49.5662 13.434C52.1917 16.0595 53.6667 19.6205 53.6667 23.3335V32.6668C53.6667 36.3799 52.1917 39.9408 49.5662 42.5663C46.9407 45.1918 43.3797 46.6668 39.6667 46.6668H16.3334C12.6203 46.6668 9.05939 45.1918 6.43388 42.5663C3.80837 39.9408 2.33337 36.3799 2.33337 32.6668V23.3335C2.33337 19.6205 3.80837 16.0595 6.43388 13.434C9.05939 10.8085 12.6203 9.3335 16.3334 9.3335H39.6667ZM23.3334 21.0002H18.6667V25.6668H14V30.3335H18.6644L18.6667 35.0002H23.3334L23.331 30.3335H28V25.6668H23.3334V21.0002ZM42 30.3335H37.3334V35.0002H42V30.3335ZM37.3334 21.0002H32.6667V25.6668H37.3334V21.0002Z" fill="white"/>
</svg>
