<svg width="32" height="32" viewBox="0 0 32 32" fill="none" xmlns="http://www.w3.org/2000/svg">
<g opacity="0.5">
<path d="M28.8854 13.6694L16.8854 3.0027C16.6416 2.78575 16.3265 2.66589 16.0001 2.66589C15.6737 2.66589 15.3586 2.78575 15.1148 3.0027L3.11477 13.6694C2.85026 13.9042 2.68986 14.2344 2.66886 14.5875C2.64786 14.9406 2.76797 15.2875 3.00277 15.552C3.23758 15.8165 3.56784 15.9769 3.92091 15.9979C4.27398 16.019 4.62093 15.8988 4.88544 15.664L5.33344 15.2654V28C5.33344 28.3537 5.47392 28.6928 5.72396 28.9428C5.97401 29.1929 6.31315 29.3334 6.66677 29.3334H25.3334C25.6871 29.3334 26.0262 29.1929 26.2762 28.9428C26.5263 28.6928 26.6668 28.3537 26.6668 28V15.2654L27.1148 15.664C27.3793 15.8988 27.7262 16.019 28.0793 15.9979C28.2541 15.9875 28.4252 15.9428 28.5827 15.8663C28.7403 15.7898 28.8812 15.683 28.9974 15.552C29.1137 15.4211 29.203 15.2685 29.2603 15.103C29.3176 14.9375 29.3418 14.7623 29.3314 14.5875C29.3209 14.4127 29.2762 14.2416 29.1997 14.0841C29.1232 13.9266 29.0164 13.7856 28.8854 13.6694ZM12.2454 26.6667C12.517 25.8873 13.0243 25.2117 13.6971 24.7337C14.3699 24.2556 15.1748 23.9988 16.0001 23.9988C16.8254 23.9988 17.6303 24.2556 18.3031 24.7337C18.9759 25.2117 19.4832 25.8873 19.7548 26.6667H12.2454ZM14.0001 19.3334C14.0001 18.9378 14.1174 18.5511 14.3372 18.2222C14.5569 17.8933 14.8693 17.637 15.2347 17.4856C15.6002 17.3342 16.0023 17.2946 16.3903 17.3718C16.7782 17.449 17.1346 17.6394 17.4143 17.9192C17.694 18.1989 17.8845 18.5552 17.9617 18.9432C18.0388 19.3311 17.9992 19.7333 17.8479 20.0987C17.6965 20.4642 17.4401 20.7765 17.1112 20.9963C16.7823 21.2161 16.3957 21.3334 16.0001 21.3334C15.4699 21.3327 14.9616 21.1217 14.5867 20.7468C14.2118 20.3719 14.0008 19.8636 14.0001 19.3334ZM24.0001 26.6667H22.5321C22.3477 25.7827 21.9857 24.9454 21.4679 24.2055C20.9501 23.4657 20.2875 22.8387 19.5201 22.3627C20.2551 21.5242 20.6623 20.4484 20.6668 19.3334C20.6668 18.0957 20.1751 16.9087 19.2999 16.0335C18.4248 15.1584 17.2378 14.6667 16.0001 14.6667C14.7624 14.6667 13.5754 15.1584 12.7003 16.0335C11.8251 16.9087 11.3334 18.0957 11.3334 19.3334C11.3379 20.4484 11.7451 21.5242 12.4801 22.3627C11.7125 22.8386 11.0496 23.4655 10.5316 24.2053C10.0136 24.9452 9.65131 25.7826 9.46677 26.6667H8.00011V12.8947L16.0001 5.78403L24.0001 12.8947V26.6667Z" fill="white"/>
</g>
</svg>
