<svg width="32" height="32" viewBox="0 0 32 32" fill="none" xmlns="http://www.w3.org/2000/svg">
<g opacity="0.5">
<path d="M26.5 28H5.5C5.09375 28 4.74219 27.8516 4.44531 27.5547C4.14844 27.2578 4 26.9062 4 26.5V19C4 18.5781 4.14844 18.2227 4.44531 17.9336C4.74219 17.6445 5.09375 17.5 5.5 17.5H26.5C26.9063 17.5 27.2578 17.6445 27.5547 17.9336C27.8516 18.2227 28 18.5781 28 19V26.5C28 26.9062 27.8516 27.2578 27.5547 27.5547C27.2578 27.8516 26.9063 28 26.5 28ZM26.5 19.75C26.5 19.5469 26.4258 19.3711 26.2773 19.2227C26.1289 19.0742 25.9531 19 25.75 19H6.25C6.04688 19 5.87109 19.0742 5.72266 19.2227C5.57422 19.3711 5.5 19.5469 5.5 19.75V25.75C5.5 25.9531 5.57422 26.1289 5.72266 26.2773C5.87109 26.4258 6.04688 26.5 6.25 26.5H25.75C25.9531 26.5 26.1289 26.4258 26.2773 26.2773C26.4258 26.1289 26.5 25.9531 26.5 25.75V19.75ZM22 25C21.5781 25 21.2227 24.8516 20.9336 24.5547C20.6445 24.2578 20.5 23.9023 20.5 23.4883C20.5 23.0742 20.6445 22.7227 20.9336 22.4336C21.2227 22.1445 21.5781 22 22 22C22.4219 22 22.7773 22.1445 23.0664 22.4336C23.3555 22.7227 23.5 23.0742 23.5 23.4883C23.5 23.9023 23.3555 24.2578 23.0664 24.5547C22.7773 24.8516 22.4219 25 22 25ZM17.5117 25C17.0977 25 16.7422 24.8516 16.4453 24.5547C16.1484 24.2578 16 23.9023 16 23.4883C16 23.0742 16.1484 22.7227 16.4453 22.4336C16.7422 22.1445 17.0977 22 17.5117 22C17.9258 22 18.2773 22.1445 18.5664 22.4336C18.8555 22.7227 19 23.0742 19 23.4883C19 23.9023 18.8555 24.2578 18.5664 24.5547C18.2773 24.8516 17.9258 25 17.5117 25ZM13 25C12.5781 25 12.2227 24.8516 11.9336 24.5547C11.6445 24.2578 11.5 23.9023 11.5 23.4883C11.5 23.0742 11.6445 22.7227 11.9336 22.4336C12.2227 22.1445 12.5781 22 13 22C13.4219 22 13.7773 22.1445 14.0664 22.4336C14.3555 22.7227 14.5 23.0742 14.5 23.4883C14.5 23.9023 14.3555 24.2578 14.0664 24.5547C13.7773 24.8516 13.4219 25 13 25ZM8.5 25C8.07813 25 7.72266 24.8516 7.43359 24.5547C7.14453 24.2578 7 23.9023 7 23.4883C7 23.0742 7.14453 22.7227 7.43359 22.4336C7.72266 22.1445 8.07813 22 8.5 22C8.92188 22 9.27734 22.1445 9.56641 22.4336C9.85547 22.7227 10 23.0742 10 23.4883C10 23.9023 9.85547 24.2578 9.56641 24.5547C9.27734 24.8516 8.92188 25 8.5 25ZM26.5 14.5H5.5C5.09375 14.5 4.74219 14.3516 4.44531 14.0547C4.14844 13.7578 4 13.4062 4 13V5.5C4 5.07812 4.14844 4.72266 4.44531 4.43359C4.74219 4.14453 5.09375 4 5.5 4H26.5C26.9063 4 27.2578 4.14453 27.5547 4.43359C27.8516 4.72266 28 5.07812 28 5.5V13C28 13.4062 27.8516 13.7578 27.5547 14.0547C27.2578 14.3516 26.9063 14.5 26.5 14.5ZM26.5 6.25C26.5 6.04688 26.4258 5.87109 26.2773 5.72266C26.1289 5.57422 25.9531 5.5 25.75 5.5H6.25C6.04688 5.5 5.87109 5.57422 5.72266 5.72266C5.57422 5.87109 5.5 6.04688 5.5 6.25V12.25C5.5 12.4531 5.57422 12.6289 5.72266 12.7773C5.87109 12.9258 6.04688 13 6.25 13H25.75C25.9531 13 26.1289 12.9258 26.2773 12.7773C26.4258 12.6289 26.5 12.4531 26.5 12.25V6.25ZM7.75 11.5C7.54688 11.5 7.37109 11.4258 7.22266 11.2773C7.07422 11.1289 7 10.9531 7 10.75V7.75C7 7.54688 7.07422 7.37109 7.22266 7.22266C7.37109 7.07422 7.54688 7 7.75 7C7.95313 7 8.12891 7.07422 8.27734 7.22266C8.42578 7.37109 8.5 7.54688 8.5 7.75V10.75C8.5 10.9531 8.42578 11.1289 8.27734 11.2773C8.12891 11.4258 7.95313 11.5 7.75 11.5Z" fill="white"/>
</g>
</svg>
